<svg width="1039" height="835" viewBox="0 0 1039 835" fill="none" xmlns="http://www.w3.org/2000/svg">
<path d="M166 22.5H928" stroke="white"/>
<path d="M166 149H928" stroke="white"/>
<path d="M166 275.5H928" stroke="white"/>
<path d="M166 402H928" stroke="white"/>
<path d="M166 528.5H928" stroke="white"/>
<path d="M166 655H928" stroke="white"/>
<path d="M166 781.5H928" stroke="white"/>
<path d="M166 126C166 116.059 174.059 108 184 108H384C393.941 108 402 116.059 402 126V782H166V126Z" fill="#BAC5C4"/>
<path d="M429 375C429 365.059 437.059 357 447 357H647C656.941 357 665 365.059 665 375V782H429V375Z" fill="white"/>
<path d="M692 525C692 515.059 700.059 507 710 507H910C919.941 507 928 515.059 928 525V782H692V525Z" fill="#BAC5C4"/>
<path d="M63.667 34H60.6787V14.958C59.9593 15.6442 59.013 16.3304 57.8398 17.0166C56.6777 17.7028 55.6318 18.2174 54.7021 18.5605V15.6719C56.3734 14.8861 57.8343 13.9342 59.085 12.8164C60.3356 11.6986 61.221 10.6139 61.7412 9.5625H63.667V34ZM87.042 31.1279V34H70.9551C70.9329 33.2806 71.0492 32.5889 71.3037 31.9248C71.7132 30.8291 72.3662 29.75 73.2627 28.6875C74.1702 27.625 75.4762 26.3965 77.1807 25.002C79.8258 22.8327 81.6133 21.1172 82.543 19.8555C83.4727 18.5827 83.9375 17.3818 83.9375 16.2529C83.9375 15.0687 83.5114 14.0726 82.6592 13.2646C81.818 12.4456 80.7168 12.0361 79.3555 12.0361C77.9167 12.0361 76.7656 12.4678 75.9023 13.3311C75.0391 14.1943 74.6019 15.3896 74.5908 16.917L71.5195 16.6016C71.7298 14.3105 72.5212 12.5674 73.8936 11.3721C75.266 10.1657 77.1087 9.5625 79.4219 9.5625C81.7572 9.5625 83.6055 10.21 84.9668 11.5049C86.3281 12.7998 87.0088 14.4046 87.0088 16.3193C87.0088 17.2933 86.8096 18.2507 86.4111 19.1914C86.0127 20.1322 85.3486 21.1227 84.4189 22.1631C83.5003 23.2035 81.9674 24.6312 79.8203 26.4463C78.0273 27.9515 76.8763 28.9753 76.3672 29.5176C75.8581 30.0488 75.4375 30.5856 75.1055 31.1279H87.042ZM90.2627 21.9971C90.2627 19.1195 90.556 16.8063 91.1426 15.0576C91.7402 13.2979 92.6201 11.9421 93.7822 10.9902C94.9554 10.0384 96.4274 9.5625 98.1982 9.5625C99.5042 9.5625 100.65 9.82812 101.635 10.3594C102.62 10.8796 103.433 11.6377 104.075 12.6338C104.717 13.6188 105.221 14.8252 105.586 16.2529C105.951 17.6696 106.134 19.5843 106.134 21.9971C106.134 24.8525 105.84 27.1602 105.254 28.9199C104.667 30.6686 103.787 32.0244 102.614 32.9873C101.452 33.9391 99.9801 34.415 98.1982 34.415C95.8519 34.415 94.0091 33.5739 92.6699 31.8916C91.0651 29.8662 90.2627 26.568 90.2627 21.9971ZM93.334 21.9971C93.334 25.9925 93.7988 28.6543 94.7285 29.9824C95.6693 31.2995 96.8258 31.958 98.1982 31.958C99.5706 31.958 100.722 31.2939 101.651 29.9658C102.592 28.6377 103.062 25.9814 103.062 21.9971C103.062 17.9906 102.592 15.3288 101.651 14.0117C100.722 12.6947 99.5596 12.0361 98.165 12.0361C96.7926 12.0361 95.6969 12.6172 94.8779 13.7793C93.8486 15.2624 93.334 18.0016 93.334 21.9971ZM109.188 21.9971C109.188 19.1195 109.482 16.8063 110.068 15.0576C110.666 13.2979 111.546 11.9421 112.708 10.9902C113.881 10.0384 115.353 9.5625 117.124 9.5625C118.43 9.5625 119.576 9.82812 120.561 10.3594C121.546 10.8796 122.359 11.6377 123.001 12.6338C123.643 13.6188 124.146 14.8252 124.512 16.2529C124.877 17.6696 125.06 19.5843 125.06 21.9971C125.06 24.8525 124.766 27.1602 124.18 28.9199C123.593 30.6686 122.713 32.0244 121.54 32.9873C120.378 33.9391 118.906 34.415 117.124 34.415C114.778 34.415 112.935 33.5739 111.596 31.8916C109.991 29.8662 109.188 26.568 109.188 21.9971ZM112.26 21.9971C112.26 25.9925 112.725 28.6543 113.654 29.9824C114.595 31.2995 115.752 31.958 117.124 31.958C118.496 31.958 119.647 31.2939 120.577 29.9658C121.518 28.6377 121.988 25.9814 121.988 21.9971C121.988 17.9906 121.518 15.3288 120.577 14.0117C119.647 12.6947 118.485 12.0361 117.091 12.0361C115.718 12.0361 114.623 12.6172 113.804 13.7793C112.774 15.2624 112.26 18.0016 112.26 21.9971ZM128.114 21.9971C128.114 19.1195 128.408 16.8063 128.994 15.0576C129.592 13.2979 130.472 11.9421 131.634 10.9902C132.807 10.0384 134.279 9.5625 136.05 9.5625C137.356 9.5625 138.501 9.82812 139.486 10.3594C140.471 10.8796 141.285 11.6377 141.927 12.6338C142.569 13.6188 143.072 14.8252 143.438 16.2529C143.803 17.6696 143.985 19.5843 143.985 21.9971C143.985 24.8525 143.692 27.1602 143.105 28.9199C142.519 30.6686 141.639 32.0244 140.466 32.9873C139.304 33.9391 137.832 34.415 136.05 34.415C133.703 34.415 131.861 33.5739 130.521 31.8916C128.917 29.8662 128.114 26.568 128.114 21.9971ZM131.186 21.9971C131.186 25.9925 131.65 28.6543 132.58 29.9824C133.521 31.2995 134.677 31.958 136.05 31.958C137.422 31.958 138.573 31.2939 139.503 29.9658C140.444 28.6377 140.914 25.9814 140.914 21.9971C140.914 17.9906 140.444 15.3288 139.503 14.0117C138.573 12.6947 137.411 12.0361 136.017 12.0361C134.644 12.0361 133.549 12.6172 132.729 13.7793C131.7 15.2624 131.186 18.0016 131.186 21.9971Z" fill="white"/>
<path d="M63.667 161H60.6787V141.958C59.9593 142.644 59.013 143.33 57.8398 144.017C56.6777 144.703 55.6318 145.217 54.7021 145.561V142.672C56.3734 141.886 57.8343 140.934 59.085 139.816C60.3356 138.699 61.221 137.614 61.7412 136.562H63.667V161ZM71.3369 148.997C71.3369 146.119 71.6302 143.806 72.2168 142.058C72.8145 140.298 73.6943 138.942 74.8564 137.99C76.0296 137.038 77.5016 136.562 79.2725 136.562C80.5785 136.562 81.724 136.828 82.709 137.359C83.694 137.88 84.5075 138.638 85.1494 139.634C85.7913 140.619 86.2949 141.825 86.6602 143.253C87.0254 144.67 87.208 146.584 87.208 148.997C87.208 151.853 86.9147 154.16 86.3281 155.92C85.7415 157.669 84.8617 159.024 83.6885 159.987C82.5264 160.939 81.0544 161.415 79.2725 161.415C76.9261 161.415 75.0833 160.574 73.7441 158.892C72.1393 156.866 71.3369 153.568 71.3369 148.997ZM74.4082 148.997C74.4082 152.993 74.873 155.654 75.8027 156.982C76.7435 158.299 77.9001 158.958 79.2725 158.958C80.6449 158.958 81.7959 158.294 82.7256 156.966C83.6663 155.638 84.1367 152.981 84.1367 148.997C84.1367 144.991 83.6663 142.329 82.7256 141.012C81.7959 139.695 80.6338 139.036 79.2393 139.036C77.8669 139.036 76.7712 139.617 75.9521 140.779C74.9229 142.262 74.4082 145.002 74.4082 148.997ZM90.2627 148.997C90.2627 146.119 90.556 143.806 91.1426 142.058C91.7402 140.298 92.6201 138.942 93.7822 137.99C94.9554 137.038 96.4274 136.562 98.1982 136.562C99.5042 136.562 100.65 136.828 101.635 137.359C102.62 137.88 103.433 138.638 104.075 139.634C104.717 140.619 105.221 141.825 105.586 143.253C105.951 144.67 106.134 146.584 106.134 148.997C106.134 151.853 105.84 154.16 105.254 155.92C104.667 157.669 103.787 159.024 102.614 159.987C101.452 160.939 99.9801 161.415 98.1982 161.415C95.8519 161.415 94.0091 160.574 92.6699 158.892C91.0651 156.866 90.2627 153.568 90.2627 148.997ZM93.334 148.997C93.334 152.993 93.7988 155.654 94.7285 156.982C95.6693 158.299 96.8258 158.958 98.1982 158.958C99.5706 158.958 100.722 158.294 101.651 156.966C102.592 155.638 103.062 152.981 103.062 148.997C103.062 144.991 102.592 142.329 101.651 141.012C100.722 139.695 99.5596 139.036 98.165 139.036C96.7926 139.036 95.6969 139.617 94.8779 140.779C93.8486 142.262 93.334 145.002 93.334 148.997ZM109.188 148.997C109.188 146.119 109.482 143.806 110.068 142.058C110.666 140.298 111.546 138.942 112.708 137.99C113.881 137.038 115.353 136.562 117.124 136.562C118.43 136.562 119.576 136.828 120.561 137.359C121.546 137.88 122.359 138.638 123.001 139.634C123.643 140.619 124.146 141.825 124.512 143.253C124.877 144.67 125.06 146.584 125.06 148.997C125.06 151.853 124.766 154.16 124.18 155.92C123.593 157.669 122.713 159.024 121.54 159.987C120.378 160.939 118.906 161.415 117.124 161.415C114.778 161.415 112.935 160.574 111.596 158.892C109.991 156.866 109.188 153.568 109.188 148.997ZM112.26 148.997C112.26 152.993 112.725 155.654 113.654 156.982C114.595 158.299 115.752 158.958 117.124 158.958C118.496 158.958 119.647 158.294 120.577 156.966C121.518 155.638 121.988 152.981 121.988 148.997C121.988 144.991 121.518 142.329 120.577 141.012C119.647 139.695 118.485 139.036 117.091 139.036C115.718 139.036 114.623 139.617 113.804 140.779C112.774 142.262 112.26 145.002 112.26 148.997ZM128.114 148.997C128.114 146.119 128.408 143.806 128.994 142.058C129.592 140.298 130.472 138.942 131.634 137.99C132.807 137.038 134.279 136.562 136.05 136.562C137.356 136.562 138.501 136.828 139.486 137.359C140.471 137.88 141.285 138.638 141.927 139.634C142.569 140.619 143.072 141.825 143.438 143.253C143.803 144.67 143.985 146.584 143.985 148.997C143.985 151.853 143.692 154.16 143.105 155.92C142.519 157.669 141.639 159.024 140.466 159.987C139.304 160.939 137.832 161.415 136.05 161.415C133.703 161.415 131.861 160.574 130.521 158.892C128.917 156.866 128.114 153.568 128.114 148.997ZM131.186 148.997C131.186 152.993 131.65 155.654 132.58 156.982C133.521 158.299 134.677 158.958 136.05 158.958C137.422 158.958 138.573 158.294 139.503 156.966C140.444 155.638 140.914 152.981 140.914 148.997C140.914 144.991 140.444 142.329 139.503 141.012C138.573 139.695 137.411 139.036 136.017 139.036C134.644 139.036 133.549 139.617 132.729 140.779C131.7 142.262 131.186 145.002 131.186 148.997Z" fill="white"/>
<path d="M76.0098 275.802C74.7702 275.348 73.8516 274.701 73.2539 273.859C72.6562 273.018 72.3574 272.011 72.3574 270.838C72.3574 269.067 72.9938 267.578 74.2666 266.372C75.5394 265.166 77.2327 264.562 79.3467 264.562C81.4717 264.562 83.1816 265.182 84.4766 266.422C85.7715 267.65 86.4189 269.15 86.4189 270.921C86.4189 272.05 86.1201 273.035 85.5225 273.876C84.9359 274.706 84.0394 275.348 82.833 275.802C84.3271 276.289 85.4616 277.075 86.2363 278.159C87.0221 279.244 87.415 280.539 87.415 282.044C87.415 284.125 86.679 285.873 85.207 287.29C83.735 288.707 81.7982 289.415 79.3965 289.415C76.9948 289.415 75.0579 288.707 73.5859 287.29C72.1139 285.862 71.3779 284.086 71.3779 281.961C71.3779 280.378 71.7764 279.056 72.5732 277.993C73.3812 276.92 74.5267 276.189 76.0098 275.802ZM75.4121 270.738C75.4121 271.889 75.7829 272.83 76.5244 273.561C77.266 274.291 78.2288 274.656 79.4131 274.656C80.5641 274.656 81.5049 274.297 82.2354 273.577C82.9769 272.847 83.3477 271.956 83.3477 270.904C83.3477 269.809 82.9658 268.89 82.2021 268.148C81.4495 267.396 80.5088 267.02 79.3799 267.02C78.2399 267.02 77.2936 267.385 76.541 268.115C75.7884 268.846 75.4121 269.72 75.4121 270.738ZM74.4492 281.978C74.4492 282.83 74.6484 283.654 75.0469 284.451C75.4564 285.248 76.0596 285.868 76.8564 286.311C77.6533 286.742 78.5111 286.958 79.4297 286.958C80.8574 286.958 82.0361 286.499 82.9658 285.58C83.8955 284.661 84.3604 283.494 84.3604 282.077C84.3604 280.638 83.8789 279.449 82.916 278.508C81.9642 277.567 80.7689 277.097 79.3301 277.097C77.9245 277.097 76.7568 277.562 75.8271 278.491C74.9085 279.421 74.4492 280.583 74.4492 281.978ZM90.3369 276.997C90.3369 274.119 90.6302 271.806 91.2168 270.058C91.8145 268.298 92.6943 266.942 93.8564 265.99C95.0296 265.038 96.5016 264.562 98.2725 264.562C99.5785 264.562 100.724 264.828 101.709 265.359C102.694 265.88 103.507 266.638 104.149 267.634C104.791 268.619 105.295 269.825 105.66 271.253C106.025 272.67 106.208 274.584 106.208 276.997C106.208 279.853 105.915 282.16 105.328 283.92C104.742 285.669 103.862 287.024 102.688 287.987C101.526 288.939 100.054 289.415 98.2725 289.415C95.9261 289.415 94.0833 288.574 92.7441 286.892C91.1393 284.866 90.3369 281.568 90.3369 276.997ZM93.4082 276.997C93.4082 280.993 93.873 283.654 94.8027 284.982C95.7435 286.299 96.9001 286.958 98.2725 286.958C99.6449 286.958 100.796 286.294 101.726 284.966C102.666 283.638 103.137 280.981 103.137 276.997C103.137 272.991 102.666 270.329 101.726 269.012C100.796 267.695 99.6338 267.036 98.2393 267.036C96.8669 267.036 95.7712 267.617 94.9521 268.779C93.9229 270.262 93.4082 273.002 93.4082 276.997ZM109.263 276.997C109.263 274.119 109.556 271.806 110.143 270.058C110.74 268.298 111.62 266.942 112.782 265.99C113.955 265.038 115.427 264.562 117.198 264.562C118.504 264.562 119.65 264.828 120.635 265.359C121.62 265.88 122.433 266.638 123.075 267.634C123.717 268.619 124.221 269.825 124.586 271.253C124.951 272.67 125.134 274.584 125.134 276.997C125.134 279.853 124.84 282.16 124.254 283.92C123.667 285.669 122.787 287.024 121.614 287.987C120.452 288.939 118.98 289.415 117.198 289.415C114.852 289.415 113.009 288.574 111.67 286.892C110.065 284.866 109.263 281.568 109.263 276.997ZM112.334 276.997C112.334 280.993 112.799 283.654 113.729 284.982C114.669 286.299 115.826 286.958 117.198 286.958C118.571 286.958 119.722 286.294 120.651 284.966C121.592 283.638 122.062 280.981 122.062 276.997C122.062 272.991 121.592 270.329 120.651 269.012C119.722 267.695 118.56 267.036 117.165 267.036C115.793 267.036 114.697 267.617 113.878 268.779C112.849 270.262 112.334 273.002 112.334 276.997ZM128.188 276.997C128.188 274.119 128.482 271.806 129.068 270.058C129.666 268.298 130.546 266.942 131.708 265.99C132.881 265.038 134.353 264.562 136.124 264.562C137.43 264.562 138.576 264.828 139.561 265.359C140.546 265.88 141.359 266.638 142.001 267.634C142.643 268.619 143.146 269.825 143.512 271.253C143.877 272.67 144.06 274.584 144.06 276.997C144.06 279.853 143.766 282.16 143.18 283.92C142.593 285.669 141.713 287.024 140.54 287.987C139.378 288.939 137.906 289.415 136.124 289.415C133.778 289.415 131.935 288.574 130.596 286.892C128.991 284.866 128.188 281.568 128.188 276.997ZM131.26 276.997C131.26 280.993 131.725 283.654 132.654 284.982C133.595 286.299 134.752 286.958 136.124 286.958C137.496 286.958 138.647 286.294 139.577 284.966C140.518 283.638 140.988 280.981 140.988 276.997C140.988 272.991 140.518 270.329 139.577 269.012C138.647 267.695 137.485 267.036 136.091 267.036C134.718 267.036 133.623 267.617 132.804 268.779C131.774 270.262 131.26 273.002 131.26 276.997Z" fill="white"/>
<path d="M86.917 395.622L83.9453 395.854C83.6797 394.681 83.3034 393.829 82.8164 393.298C82.0085 392.446 81.0124 392.02 79.8281 392.02C78.8763 392.02 78.0407 392.285 77.3213 392.816C76.3805 393.503 75.639 394.504 75.0967 395.821C74.5544 397.138 74.2721 399.014 74.25 401.449C74.9694 400.354 75.8493 399.54 76.8896 399.009C77.93 398.478 79.0202 398.212 80.1602 398.212C82.1523 398.212 83.8457 398.948 85.2402 400.42C86.6458 401.881 87.3486 403.773 87.3486 406.098C87.3486 407.625 87.0166 409.047 86.3525 410.364C85.6995 411.67 84.7975 412.672 83.6465 413.369C82.4954 414.066 81.1895 414.415 79.7285 414.415C77.2383 414.415 75.2074 413.502 73.6357 411.676C72.0641 409.839 71.2783 406.817 71.2783 402.611C71.2783 397.908 72.1471 394.488 73.8848 392.352C75.401 390.492 77.443 389.562 80.0107 389.562C81.9255 389.562 83.4915 390.099 84.709 391.173C85.9375 392.246 86.6735 393.729 86.917 395.622ZM74.7148 406.114C74.7148 407.144 74.9307 408.129 75.3623 409.069C75.805 410.01 76.4193 410.729 77.2051 411.228C77.9909 411.715 78.8154 411.958 79.6787 411.958C80.9404 411.958 82.0251 411.449 82.9326 410.431C83.8402 409.412 84.2939 408.029 84.2939 406.28C84.2939 404.598 83.8457 403.275 82.9492 402.312C82.0527 401.339 80.9238 400.852 79.5625 400.852C78.2122 400.852 77.0667 401.339 76.126 402.312C75.1852 403.275 74.7148 404.543 74.7148 406.114ZM90.3369 401.997C90.3369 399.119 90.6302 396.806 91.2168 395.058C91.8145 393.298 92.6943 391.942 93.8564 390.99C95.0296 390.038 96.5016 389.562 98.2725 389.562C99.5785 389.562 100.724 389.828 101.709 390.359C102.694 390.88 103.507 391.638 104.149 392.634C104.791 393.619 105.295 394.825 105.66 396.253C106.025 397.67 106.208 399.584 106.208 401.997C106.208 404.853 105.915 407.16 105.328 408.92C104.742 410.669 103.862 412.024 102.688 412.987C101.526 413.939 100.054 414.415 98.2725 414.415C95.9261 414.415 94.0833 413.574 92.7441 411.892C91.1393 409.866 90.3369 406.568 90.3369 401.997ZM93.4082 401.997C93.4082 405.993 93.873 408.654 94.8027 409.982C95.7435 411.299 96.9001 411.958 98.2725 411.958C99.6449 411.958 100.796 411.294 101.726 409.966C102.666 408.638 103.137 405.981 103.137 401.997C103.137 397.991 102.666 395.329 101.726 394.012C100.796 392.695 99.6338 392.036 98.2393 392.036C96.8669 392.036 95.7712 392.617 94.9521 393.779C93.9229 395.262 93.4082 398.002 93.4082 401.997ZM109.263 401.997C109.263 399.119 109.556 396.806 110.143 395.058C110.74 393.298 111.62 391.942 112.782 390.99C113.955 390.038 115.427 389.562 117.198 389.562C118.504 389.562 119.65 389.828 120.635 390.359C121.62 390.88 122.433 391.638 123.075 392.634C123.717 393.619 124.221 394.825 124.586 396.253C124.951 397.67 125.134 399.584 125.134 401.997C125.134 404.853 124.84 407.16 124.254 408.92C123.667 410.669 122.787 412.024 121.614 412.987C120.452 413.939 118.98 414.415 117.198 414.415C114.852 414.415 113.009 413.574 111.67 411.892C110.065 409.866 109.263 406.568 109.263 401.997ZM112.334 401.997C112.334 405.993 112.799 408.654 113.729 409.982C114.669 411.299 115.826 411.958 117.198 411.958C118.571 411.958 119.722 411.294 120.651 409.966C121.592 408.638 122.062 405.981 122.062 401.997C122.062 397.991 121.592 395.329 120.651 394.012C119.722 392.695 118.56 392.036 117.165 392.036C115.793 392.036 114.697 392.617 113.878 393.779C112.849 395.262 112.334 398.002 112.334 401.997ZM128.188 401.997C128.188 399.119 128.482 396.806 129.068 395.058C129.666 393.298 130.546 391.942 131.708 390.99C132.881 390.038 134.353 389.562 136.124 389.562C137.43 389.562 138.576 389.828 139.561 390.359C140.546 390.88 141.359 391.638 142.001 392.634C142.643 393.619 143.146 394.825 143.512 396.253C143.877 397.67 144.06 399.584 144.06 401.997C144.06 404.853 143.766 407.16 143.18 408.92C142.593 410.669 141.713 412.024 140.54 412.987C139.378 413.939 137.906 414.415 136.124 414.415C133.778 414.415 131.935 413.574 130.596 411.892C128.991 409.866 128.188 406.568 128.188 401.997ZM131.26 401.997C131.26 405.993 131.725 408.654 132.654 409.982C133.595 411.299 134.752 411.958 136.124 411.958C137.496 411.958 138.647 411.294 139.577 409.966C140.518 408.638 140.988 405.981 140.988 401.997C140.988 397.991 140.518 395.329 139.577 394.012C138.647 392.695 137.485 392.036 136.091 392.036C134.718 392.036 133.623 392.617 132.804 393.779C131.774 395.262 131.26 398.002 131.26 401.997Z" fill="white"/>
<path d="M80.9902 541V535.173H70.4316V532.434L81.5381 516.662H83.9785V532.434H87.2656V535.173H83.9785V541H80.9902ZM80.9902 532.434V521.46L73.3701 532.434H80.9902ZM90.3369 528.997C90.3369 526.119 90.6302 523.806 91.2168 522.058C91.8145 520.298 92.6943 518.942 93.8564 517.99C95.0296 517.038 96.5016 516.562 98.2725 516.562C99.5785 516.562 100.724 516.828 101.709 517.359C102.694 517.88 103.507 518.638 104.149 519.634C104.791 520.619 105.295 521.825 105.66 523.253C106.025 524.67 106.208 526.584 106.208 528.997C106.208 531.853 105.915 534.16 105.328 535.92C104.742 537.669 103.862 539.024 102.688 539.987C101.526 540.939 100.054 541.415 98.2725 541.415C95.9261 541.415 94.0833 540.574 92.7441 538.892C91.1393 536.866 90.3369 533.568 90.3369 528.997ZM93.4082 528.997C93.4082 532.993 93.873 535.654 94.8027 536.982C95.7435 538.299 96.9001 538.958 98.2725 538.958C99.6449 538.958 100.796 538.294 101.726 536.966C102.666 535.638 103.137 532.981 103.137 528.997C103.137 524.991 102.666 522.329 101.726 521.012C100.796 519.695 99.6338 519.036 98.2393 519.036C96.8669 519.036 95.7712 519.617 94.9521 520.779C93.9229 522.262 93.4082 525.002 93.4082 528.997ZM109.263 528.997C109.263 526.119 109.556 523.806 110.143 522.058C110.74 520.298 111.62 518.942 112.782 517.99C113.955 517.038 115.427 516.562 117.198 516.562C118.504 516.562 119.65 516.828 120.635 517.359C121.62 517.88 122.433 518.638 123.075 519.634C123.717 520.619 124.221 521.825 124.586 523.253C124.951 524.67 125.134 526.584 125.134 528.997C125.134 531.853 124.84 534.16 124.254 535.92C123.667 537.669 122.787 539.024 121.614 539.987C120.452 540.939 118.98 541.415 117.198 541.415C114.852 541.415 113.009 540.574 111.67 538.892C110.065 536.866 109.263 533.568 109.263 528.997ZM112.334 528.997C112.334 532.993 112.799 535.654 113.729 536.982C114.669 538.299 115.826 538.958 117.198 538.958C118.571 538.958 119.722 538.294 120.651 536.966C121.592 535.638 122.062 532.981 122.062 528.997C122.062 524.991 121.592 522.329 120.651 521.012C119.722 519.695 118.56 519.036 117.165 519.036C115.793 519.036 114.697 519.617 113.878 520.779C112.849 522.262 112.334 525.002 112.334 528.997ZM128.188 528.997C128.188 526.119 128.482 523.806 129.068 522.058C129.666 520.298 130.546 518.942 131.708 517.99C132.881 517.038 134.353 516.562 136.124 516.562C137.43 516.562 138.576 516.828 139.561 517.359C140.546 517.88 141.359 518.638 142.001 519.634C142.643 520.619 143.146 521.825 143.512 523.253C143.877 524.67 144.06 526.584 144.06 528.997C144.06 531.853 143.766 534.16 143.18 535.92C142.593 537.669 141.713 539.024 140.54 539.987C139.378 540.939 137.906 541.415 136.124 541.415C133.778 541.415 131.935 540.574 130.596 538.892C128.991 536.866 128.188 533.568 128.188 528.997ZM131.26 528.997C131.26 532.993 131.725 535.654 132.654 536.982C133.595 538.299 134.752 538.958 136.124 538.958C137.496 538.958 138.647 538.294 139.577 536.966C140.518 535.638 140.988 532.981 140.988 528.997C140.988 524.991 140.518 522.329 139.577 521.012C138.647 519.695 137.485 519.036 136.091 519.036C134.718 519.036 133.623 519.617 132.804 520.779C131.774 522.262 131.26 525.002 131.26 528.997Z" fill="white"/>
<path d="M87.1162 665.128V668H71.0293C71.0072 667.281 71.1234 666.589 71.3779 665.925C71.7874 664.829 72.4404 663.75 73.3369 662.688C74.2445 661.625 75.5505 660.396 77.2549 659.002C79.9001 656.833 81.6875 655.117 82.6172 653.855C83.5469 652.583 84.0117 651.382 84.0117 650.253C84.0117 649.069 83.5856 648.073 82.7334 647.265C81.8923 646.446 80.791 646.036 79.4297 646.036C77.9909 646.036 76.8398 646.468 75.9766 647.331C75.1133 648.194 74.6761 649.39 74.665 650.917L71.5938 650.602C71.804 648.311 72.5954 646.567 73.9678 645.372C75.3402 644.166 77.1829 643.562 79.4961 643.562C81.8314 643.562 83.6797 644.21 85.041 645.505C86.4023 646.8 87.083 648.405 87.083 650.319C87.083 651.293 86.8838 652.251 86.4854 653.191C86.0869 654.132 85.4229 655.123 84.4932 656.163C83.5745 657.203 82.0417 658.631 79.8945 660.446C78.1016 661.951 76.9505 662.975 76.4414 663.518C75.9323 664.049 75.5117 664.586 75.1797 665.128H87.1162ZM90.3369 655.997C90.3369 653.119 90.6302 650.806 91.2168 649.058C91.8145 647.298 92.6943 645.942 93.8564 644.99C95.0296 644.038 96.5016 643.562 98.2725 643.562C99.5785 643.562 100.724 643.828 101.709 644.359C102.694 644.88 103.507 645.638 104.149 646.634C104.791 647.619 105.295 648.825 105.66 650.253C106.025 651.67 106.208 653.584 106.208 655.997C106.208 658.853 105.915 661.16 105.328 662.92C104.742 664.669 103.862 666.024 102.688 666.987C101.526 667.939 100.054 668.415 98.2725 668.415C95.9261 668.415 94.0833 667.574 92.7441 665.892C91.1393 663.866 90.3369 660.568 90.3369 655.997ZM93.4082 655.997C93.4082 659.993 93.873 662.654 94.8027 663.982C95.7435 665.299 96.9001 665.958 98.2725 665.958C99.6449 665.958 100.796 665.294 101.726 663.966C102.666 662.638 103.137 659.981 103.137 655.997C103.137 651.991 102.666 649.329 101.726 648.012C100.796 646.695 99.6338 646.036 98.2393 646.036C96.8669 646.036 95.7712 646.617 94.9521 647.779C93.9229 649.262 93.4082 652.002 93.4082 655.997ZM109.263 655.997C109.263 653.119 109.556 650.806 110.143 649.058C110.74 647.298 111.62 645.942 112.782 644.99C113.955 644.038 115.427 643.562 117.198 643.562C118.504 643.562 119.65 643.828 120.635 644.359C121.62 644.88 122.433 645.638 123.075 646.634C123.717 647.619 124.221 648.825 124.586 650.253C124.951 651.67 125.134 653.584 125.134 655.997C125.134 658.853 124.84 661.16 124.254 662.92C123.667 664.669 122.787 666.024 121.614 666.987C120.452 667.939 118.98 668.415 117.198 668.415C114.852 668.415 113.009 667.574 111.67 665.892C110.065 663.866 109.263 660.568 109.263 655.997ZM112.334 655.997C112.334 659.993 112.799 662.654 113.729 663.982C114.669 665.299 115.826 665.958 117.198 665.958C118.571 665.958 119.722 665.294 120.651 663.966C121.592 662.638 122.062 659.981 122.062 655.997C122.062 651.991 121.592 649.329 120.651 648.012C119.722 646.695 118.56 646.036 117.165 646.036C115.793 646.036 114.697 646.617 113.878 647.779C112.849 649.262 112.334 652.002 112.334 655.997ZM128.188 655.997C128.188 653.119 128.482 650.806 129.068 649.058C129.666 647.298 130.546 645.942 131.708 644.99C132.881 644.038 134.353 643.562 136.124 643.562C137.43 643.562 138.576 643.828 139.561 644.359C140.546 644.88 141.359 645.638 142.001 646.634C142.643 647.619 143.146 648.825 143.512 650.253C143.877 651.67 144.06 653.584 144.06 655.997C144.06 658.853 143.766 661.16 143.18 662.92C142.593 664.669 141.713 666.024 140.54 666.987C139.378 667.939 137.906 668.415 136.124 668.415C133.778 668.415 131.935 667.574 130.596 665.892C128.991 663.866 128.188 660.568 128.188 655.997ZM131.26 655.997C131.26 659.993 131.725 662.654 132.654 663.982C133.595 665.299 134.752 665.958 136.124 665.958C137.496 665.958 138.647 665.294 139.577 663.966C140.518 662.638 140.988 659.981 140.988 655.997C140.988 651.991 140.518 649.329 139.577 648.012C138.647 646.695 137.485 646.036 136.091 646.036C134.718 646.036 133.623 646.617 132.804 647.779C131.774 649.262 131.26 652.002 131.26 655.997Z" fill="white"/>
<path d="M128.411 782.997C128.411 780.119 128.704 777.806 129.291 776.058C129.889 774.298 130.769 772.942 131.931 771.99C133.104 771.038 134.576 770.562 136.347 770.562C137.653 770.562 138.798 770.828 139.783 771.359C140.768 771.88 141.582 772.638 142.224 773.634C142.866 774.619 143.369 775.825 143.734 777.253C144.1 778.67 144.282 780.584 144.282 782.997C144.282 785.853 143.989 788.16 143.402 789.92C142.816 791.669 141.936 793.024 140.763 793.987C139.601 794.939 138.129 795.415 136.347 795.415C134 795.415 132.158 794.574 130.818 792.892C129.214 790.866 128.411 787.568 128.411 782.997ZM131.482 782.997C131.482 786.993 131.947 789.654 132.877 790.982C133.818 792.299 134.974 792.958 136.347 792.958C137.719 792.958 138.87 792.294 139.8 790.966C140.741 789.638 141.211 786.981 141.211 782.997C141.211 778.991 140.741 776.329 139.8 775.012C138.87 773.695 137.708 773.036 136.313 773.036C134.941 773.036 133.845 773.617 133.026 774.779C131.997 776.262 131.482 779.002 131.482 782.997Z" fill="white"/>
<path d="M32 542.922L15.4062 542.922L15.4062 540.391L17.9219 540.391C16.7448 539.745 15.9687 539.151 15.5937 538.609C15.2187 538.057 15.0312 537.453 15.0312 536.797C15.0312 535.849 15.3333 534.885 15.9375 533.906L18.5469 534.875C18.1406 535.562 17.9375 536.25 17.9375 536.937C17.9375 537.552 18.125 538.104 18.5 538.594C18.8646 539.083 19.375 539.432 20.0312 539.641C21.0312 539.953 22.125 540.109 23.3125 540.109L32 540.109L32 542.922ZM38.3594 532.234L15.4062 532.234L15.4062 529.672L17.5625 529.672C16.7187 529.068 16.0885 528.385 15.6719 527.625C15.2448 526.865 15.0312 525.943 15.0312 524.859C15.0312 523.443 15.3958 522.193 16.125 521.109C16.8542 520.026 17.8854 519.208 19.2187 518.656C20.5417 518.104 21.9948 517.828 23.5781 517.828C25.276 517.828 26.8073 518.135 28.1719 518.75C29.526 519.354 30.5677 520.24 31.2969 521.406C32.0156 522.562 32.375 523.781 32.375 525.062C32.375 526 32.1771 526.844 31.7812 527.594C31.3854 528.333 30.8854 528.943 30.2812 529.422L38.3594 529.422L38.3594 532.234ZM23.7969 529.687C25.9323 529.687 27.5104 529.255 28.5312 528.391C29.5521 527.526 30.0625 526.479 30.0625 525.25C30.0625 524 29.5365 522.932 28.4844 522.047C27.4219 521.151 25.7812 520.703 23.5625 520.703C21.4479 520.703 19.8646 521.141 18.8125 522.016C17.7604 522.88 17.2344 523.917 17.2344 525.125C17.2344 526.323 17.7969 527.385 18.9219 528.312C20.0365 529.229 21.6615 529.687 23.7969 529.687ZM27.0469 515.547L26.6094 512.766C27.724 512.609 28.5781 512.177 29.1719 511.469C29.7656 510.75 30.0625 509.75 30.0625 508.469C30.0625 507.177 29.8021 506.219 29.2812 505.594C28.75 504.969 28.1302 504.656 27.4219 504.656C26.7865 504.656 26.2865 504.932 25.9219 505.484C25.6719 505.87 25.3542 506.828 24.9687 508.359C24.4479 510.422 24 511.854 23.625 512.656C23.2396 513.448 22.7135 514.052 22.0469 514.469C21.3698 514.875 20.625 515.078 19.8125 515.078C19.0729 515.078 18.3906 514.911 17.7656 514.578C17.1302 514.234 16.6042 513.771 16.1875 513.187C15.8646 512.75 15.5937 512.156 15.375 511.406C15.1458 510.646 15.0312 509.833 15.0312 508.969C15.0312 507.667 15.2187 506.526 15.5937 505.547C15.9687 504.557 16.4792 503.828 17.125 503.359C17.7604 502.891 18.6146 502.568 19.6875 502.391L20.0625 505.141C19.2083 505.266 18.5417 505.63 18.0625 506.234C17.5833 506.828 17.3437 507.672 17.3437 508.766C17.3437 510.057 17.5573 510.979 17.9844 511.531C18.4115 512.083 18.9115 512.359 19.4844 512.359C19.849 512.359 20.1771 512.245 20.4687 512.016C20.7708 511.786 21.0208 511.427 21.2187 510.937C21.3229 510.656 21.5625 509.828 21.9375 508.453C22.4687 506.464 22.9062 505.078 23.25 504.297C23.5833 503.505 24.0729 502.885 24.7187 502.437C25.3646 501.99 26.1667 501.766 27.125 501.766C28.0625 501.766 28.9479 502.042 29.7812 502.594C30.6042 503.135 31.2448 503.922 31.7031 504.953C32.151 505.984 32.375 507.151 32.375 508.453C32.375 510.609 31.9271 512.255 31.0312 513.391C30.1354 514.516 28.8073 515.234 27.0469 515.547ZM38.7344 484.141C36.776 485.693 34.4844 487.005 31.8594 488.078C29.2344 489.151 26.5156 489.687 23.7031 489.687C21.224 489.687 18.849 489.286 16.5781 488.484C13.9427 487.547 11.3177 486.099 8.70312 484.141L8.70312 482.125C10.8698 483.385 12.4167 484.219 13.3437 484.625C14.7812 485.26 16.2812 485.76 17.8437 486.125C19.7917 486.573 21.75 486.797 23.7187 486.797C28.7292 486.797 33.7344 485.24 38.7344 482.125L38.7344 484.141ZM32 478.859L9.09375 478.859L9.09375 476.047L17.3125 476.047C15.7917 474.734 15.0312 473.078 15.0312 471.078C15.0312 469.849 15.276 468.781 15.7656 467.875C16.2448 466.969 16.9115 466.323 17.7656 465.937C18.6198 465.542 19.8594 465.344 21.4844 465.344L32 465.344L32 468.156L21.4844 468.156C20.0781 468.156 19.0573 468.464 18.4219 469.078C17.776 469.682 17.4531 470.542 17.4531 471.656C17.4531 472.49 17.6719 473.276 18.1094 474.016C18.5365 474.745 19.1198 475.266 19.8594 475.578C20.599 475.891 21.6198 476.047 22.9219 476.047L32 476.047L32 478.859ZM12.3281 461.031L9.09375 461.031L9.09375 458.219L12.3281 458.219L12.3281 461.031ZM32 461.031L15.4062 461.031L15.4062 458.219L32 458.219L32 461.031ZM33.375 454.437L33.7812 451.703C34.625 451.589 35.2396 451.271 35.625 450.75C36.1458 450.052 36.4062 449.099 36.4062 447.891C36.4062 446.589 36.1458 445.583 35.625 444.875C35.1042 444.167 34.375 443.687 33.4375 443.437C32.8646 443.292 31.6615 443.224 29.8281 443.234C31.276 444.464 32 445.995 32 447.828C32 450.109 31.1771 451.875 29.5312 453.125C27.8854 454.375 25.9115 455 23.6094 455C22.026 455 20.5677 454.714 19.2344 454.141C17.8906 453.568 16.8542 452.74 16.125 451.656C15.3958 450.562 15.0312 449.281 15.0312 447.812C15.0312 445.854 15.8229 444.24 17.4062 442.969L15.4062 442.969L15.4062 440.375L29.75 440.375C32.3333 440.375 34.1615 440.641 35.2344 441.172C36.3177 441.693 37.1719 442.526 37.7969 443.672C38.4219 444.807 38.7344 446.208 38.7344 447.875C38.7344 449.854 38.2865 451.453 37.3906 452.672C36.5052 453.891 35.1667 454.479 33.375 454.437ZM23.4062 452.109C25.5833 452.109 27.1719 451.677 28.1719 450.812C29.1719 449.948 29.6719 448.865 29.6719 447.562C29.6719 446.271 29.1771 445.187 28.1875 444.312C27.1875 443.437 25.625 443 23.5 443C21.4687 443 19.9375 443.453 18.9062 444.359C17.875 445.255 17.3594 446.339 17.3594 447.609C17.3594 448.859 17.8698 449.922 18.8906 450.797C19.901 451.672 21.4062 452.109 23.4062 452.109ZM32 436.109L9.09375 436.109L9.09375 433.297L17.3125 433.297C15.7917 431.984 15.0312 430.328 15.0312 428.328C15.0312 427.099 15.276 426.031 15.7656 425.125C16.2448 424.219 16.9115 423.573 17.7656 423.187C18.6198 422.792 19.8594 422.594 21.4844 422.594L32 422.594L32 425.406L21.4844 425.406C20.0781 425.406 19.0573 425.714 18.4219 426.328C17.776 426.932 17.4531 427.792 17.4531 428.906C17.4531 429.74 17.6719 430.526 18.1094 431.266C18.5365 431.995 19.1198 432.516 19.8594 432.828C20.599 433.141 21.6198 433.297 22.9219 433.297L32 433.297L32 436.109ZM26.6562 406.937L27.0156 404.031C28.7135 404.49 30.0312 405.339 30.9687 406.578C31.9062 407.818 32.375 409.401 32.375 411.328C32.375 413.755 31.6302 415.682 30.1406 417.109C28.6406 418.526 26.5417 419.234 23.8437 419.234C21.0521 419.234 18.8854 418.516 17.3437 417.078C15.8021 415.641 15.0312 413.776 15.0312 411.484C15.0312 409.266 15.7865 407.453 17.2969 406.047C18.8073 404.641 20.9323 403.937 23.6719 403.937C23.8385 403.937 24.0885 403.943 24.4219 403.953L24.4219 416.328C26.2448 416.224 27.6406 415.708 28.6094 414.781C29.5781 413.854 30.0625 412.698 30.0625 411.312C30.0625 410.281 29.7917 409.401 29.25 408.672C28.7083 407.943 27.8437 407.365 26.6562 406.937ZM22.1094 416.172L22.1094 406.906C20.7135 407.031 19.6667 407.385 18.9687 407.969C17.8854 408.865 17.3437 410.026 17.3437 411.453C17.3437 412.745 17.776 413.833 18.6406 414.719C19.5052 415.594 20.6615 416.078 22.1094 416.172ZM32 400.516L15.4062 400.516L15.4062 397.984L17.9219 397.984C16.7448 397.339 15.9687 396.745 15.5937 396.203C15.2187 395.651 15.0312 395.047 15.0312 394.391C15.0312 393.443 15.3333 392.479 15.9375 391.5L18.5469 392.469C18.1406 393.156 17.9375 393.844 17.9375 394.531C17.9375 395.146 18.125 395.698 18.5 396.187C18.8646 396.677 19.375 397.026 20.0312 397.234C21.0312 397.547 22.125 397.703 23.3125 397.703L32 397.703L32 400.516ZM12.3281 380.906L9.09374 380.906L9.09374 378.094L12.3281 378.094L12.3281 380.906ZM32 380.906L15.4062 380.906L15.4062 378.094L32 378.094L32 380.906ZM27.0469 374.922L26.6094 372.141C27.724 371.984 28.5781 371.552 29.1719 370.844C29.7656 370.125 30.0625 369.125 30.0625 367.844C30.0625 366.552 29.8021 365.594 29.2812 364.969C28.75 364.344 28.1302 364.031 27.4219 364.031C26.7865 364.031 26.2865 364.307 25.9219 364.859C25.6719 365.245 25.3542 366.203 24.9687 367.734C24.4479 369.797 24 371.229 23.625 372.031C23.2396 372.823 22.7135 373.427 22.0469 373.844C21.3698 374.25 20.625 374.453 19.8125 374.453C19.0729 374.453 18.3906 374.286 17.7656 373.953C17.1302 373.609 16.6042 373.146 16.1875 372.562C15.8646 372.125 15.5937 371.531 15.375 370.781C15.1458 370.021 15.0312 369.208 15.0312 368.344C15.0312 367.042 15.2187 365.901 15.5937 364.922C15.9687 363.932 16.4792 363.203 17.125 362.734C17.7604 362.266 18.6146 361.943 19.6875 361.766L20.0625 364.516C19.2083 364.641 18.5417 365.005 18.0625 365.609C17.5833 366.203 17.3437 367.047 17.3437 368.141C17.3437 369.432 17.5573 370.354 17.9844 370.906C18.4115 371.458 18.9115 371.734 19.4844 371.734C19.849 371.734 20.1771 371.62 20.4687 371.391C20.7708 371.161 21.0208 370.802 21.2187 370.312C21.3229 370.031 21.5625 369.203 21.9375 367.828C22.4687 365.839 22.9062 364.453 23.25 363.672C23.5833 362.88 24.0729 362.26 24.7187 361.812C25.3646 361.365 26.1667 361.141 27.125 361.141C28.0625 361.141 28.9479 361.417 29.7812 361.969C30.6042 362.51 31.2448 363.297 31.7031 364.328C32.151 365.359 32.375 366.526 32.375 367.828C32.375 369.984 31.9271 371.63 31.0312 372.766C30.1354 373.891 28.8073 374.609 27.0469 374.922ZM32 346.297L32 348.906L9.09374 348.906L9.09374 346.094L17.2656 346.094C15.776 344.906 15.0312 343.391 15.0312 341.547C15.0312 340.526 15.2396 339.562 15.6562 338.656C16.0625 337.74 16.6406 336.99 17.3906 336.406C18.1302 335.812 19.026 335.349 20.0781 335.016C21.1302 334.682 22.2552 334.516 23.4531 334.516C26.2969 334.516 28.4948 335.219 30.0469 336.625C31.5989 338.031 32.375 339.719 32.375 341.687C32.375 343.646 31.5573 345.182 29.9219 346.297L32 346.297ZM23.5781 346.328C25.5677 346.328 27.0052 346.057 27.8906 345.516C29.3385 344.63 30.0625 343.432 30.0625 341.922C30.0625 340.693 29.5312 339.63 28.4687 338.734C27.3958 337.839 25.8021 337.391 23.6875 337.391C21.5208 337.391 19.9219 337.823 18.8906 338.687C17.8594 339.542 17.3437 340.578 17.3437 341.797C17.3437 343.026 17.8802 344.089 18.9531 344.984C20.0156 345.88 21.5573 346.328 23.5781 346.328ZM26.6562 319.719L27.0156 316.812C28.7135 317.271 30.0312 318.12 30.9687 319.359C31.9062 320.599 32.375 322.182 32.375 324.109C32.375 326.536 31.6302 328.464 30.1406 329.891C28.6406 331.307 26.5417 332.016 23.8437 332.016C21.0521 332.016 18.8854 331.297 17.3437 329.859C15.8021 328.422 15.0312 326.557 15.0312 324.266C15.0312 322.047 15.7864 320.234 17.2969 318.828C18.8073 317.422 20.9323 316.719 23.6719 316.719C23.8385 316.719 24.0885 316.724 24.4219 316.734L24.4219 329.109C26.2448 329.005 27.6406 328.49 28.6094 327.562C29.5781 326.635 30.0625 325.479 30.0625 324.094C30.0625 323.062 29.7917 322.182 29.25 321.453C28.7083 320.724 27.8437 320.146 26.6562 319.719ZM22.1094 328.953L22.1094 319.687C20.7135 319.812 19.6667 320.167 18.9687 320.75C17.8854 321.646 17.3437 322.807 17.3437 324.234C17.3437 325.526 17.776 326.615 18.6406 327.5C19.5052 328.375 20.6614 328.859 22.1094 328.953ZM29.4844 307.125L31.9687 306.719C32.1354 307.51 32.2187 308.219 32.2187 308.844C32.2187 309.865 32.0573 310.656 31.7344 311.219C31.4114 311.781 30.9896 312.177 30.4687 312.406C29.9375 312.635 28.8281 312.75 27.1406 312.75L17.5937 312.75L17.5937 314.812L15.4062 314.812L15.4062 312.75L11.2969 312.75L9.60936 309.953L15.4062 309.953L15.4062 307.125L17.5937 307.125L17.5937 309.953L27.2969 309.953C28.0989 309.953 28.6146 309.906 28.8437 309.812C29.0729 309.708 29.2552 309.547 29.3906 309.328C29.526 309.099 29.5937 308.776 29.5937 308.359C29.5937 308.047 29.5573 307.635 29.4844 307.125ZM29.4844 298.219L31.9687 297.812C32.1354 298.604 32.2187 299.312 32.2187 299.937C32.2187 300.958 32.0573 301.75 31.7344 302.312C31.4114 302.875 30.9896 303.271 30.4687 303.5C29.9375 303.729 28.8281 303.844 27.1406 303.844L17.5937 303.844L17.5937 305.906L15.4062 305.906L15.4062 303.844L11.2969 303.844L9.60936 301.047L15.4062 301.047L15.4062 298.219L17.5937 298.219L17.5937 301.047L27.2969 301.047C28.0989 301.047 28.6146 301 28.8437 300.906C29.0729 300.802 29.2552 300.641 29.3906 300.422C29.526 300.193 29.5937 299.87 29.5937 299.453C29.5937 299.141 29.5573 298.729 29.4844 298.219ZM26.6562 284.094L27.0156 281.187C28.7135 281.646 30.0312 282.495 30.9687 283.734C31.9062 284.974 32.375 286.557 32.375 288.484C32.375 290.911 31.6302 292.839 30.1406 294.266C28.6406 295.682 26.5417 296.391 23.8437 296.391C21.0521 296.391 18.8854 295.672 17.3437 294.234C15.8021 292.797 15.0312 290.932 15.0312 288.641C15.0312 286.422 15.7864 284.609 17.2969 283.203C18.8073 281.797 20.9323 281.094 23.6719 281.094C23.8385 281.094 24.0885 281.099 24.4219 281.109L24.4219 293.484C26.2448 293.38 27.6406 292.865 28.6094 291.937C29.5781 291.01 30.0625 289.854 30.0625 288.469C30.0625 287.437 29.7917 286.557 29.25 285.828C28.7083 285.099 27.8437 284.521 26.6562 284.094ZM22.1094 293.328L22.1094 284.062C20.7135 284.187 19.6667 284.542 18.9687 285.125C17.8854 286.021 17.3437 287.182 17.3437 288.609C17.3437 289.901 17.776 290.99 18.6406 291.875C19.5052 292.75 20.6614 293.234 22.1094 293.328ZM32 277.672L15.4062 277.672L15.4062 275.141L17.9219 275.141C16.7448 274.495 15.9687 273.901 15.5937 273.359C15.2187 272.807 15.0312 272.203 15.0312 271.547C15.0312 270.599 15.3333 269.635 15.9375 268.656L18.5469 269.625C18.1406 270.312 17.9375 271 17.9375 271.687C17.9375 272.302 18.125 272.854 18.5 273.344C18.8646 273.833 19.375 274.182 20.0312 274.391C21.0312 274.703 22.125 274.859 23.3125 274.859L32 274.859L32 277.672ZM38.7344 265.141L38.7344 267.156C33.7344 264.042 28.7292 262.484 23.7187 262.484C21.7604 262.484 19.8177 262.708 17.8906 263.156C16.3281 263.51 14.8281 264.005 13.3906 264.641C12.4531 265.047 10.8906 265.885 8.70311 267.156L8.70311 265.141C11.3177 263.182 13.9427 261.734 16.5781 260.797C18.8489 259.995 21.2239 259.594 23.7031 259.594C26.5156 259.594 29.2344 260.135 31.8594 261.219C34.4844 262.292 36.776 263.599 38.7344 265.141Z" fill="white"/>
<path d="M530.68 825V822.775C529.562 824.524 527.918 825.398 525.749 825.398C524.343 825.398 523.049 825.011 521.864 824.236C520.691 823.462 519.778 822.382 519.125 820.999C518.483 819.604 518.162 818.005 518.162 816.201C518.162 814.441 518.455 812.848 519.042 811.42C519.629 809.981 520.508 808.88 521.682 808.116C522.855 807.353 524.166 806.971 525.616 806.971C526.679 806.971 527.625 807.198 528.455 807.651C529.285 808.094 529.96 808.675 530.48 809.395V800.662H533.452V825H530.68ZM521.233 816.201C521.233 818.459 521.709 820.147 522.661 821.265C523.613 822.382 524.736 822.941 526.031 822.941C527.337 822.941 528.444 822.41 529.352 821.348C530.27 820.274 530.729 818.642 530.729 816.45C530.729 814.037 530.265 812.267 529.335 811.138C528.405 810.009 527.26 809.444 525.898 809.444C524.57 809.444 523.458 809.987 522.562 811.071C521.676 812.156 521.233 813.866 521.233 816.201ZM538.167 825V807.369H540.84V809.843C541.393 808.979 542.129 808.288 543.048 807.768C543.966 807.236 545.012 806.971 546.186 806.971C547.492 806.971 548.56 807.242 549.39 807.784C550.231 808.326 550.823 809.085 551.166 810.059C552.561 808 554.376 806.971 556.611 806.971C558.36 806.971 559.705 807.458 560.646 808.432C561.586 809.395 562.057 810.883 562.057 812.897V825H559.085V813.894C559.085 812.698 558.985 811.84 558.786 811.32C558.598 810.789 558.249 810.363 557.74 810.042C557.231 809.721 556.633 809.561 555.947 809.561C554.708 809.561 553.678 809.976 552.859 810.806C552.04 811.625 551.631 812.942 551.631 814.757V825H548.643V813.545C548.643 812.217 548.399 811.221 547.912 810.557C547.425 809.893 546.628 809.561 545.521 809.561C544.68 809.561 543.9 809.782 543.181 810.225C542.472 810.667 541.958 811.315 541.637 812.167C541.316 813.019 541.155 814.248 541.155 815.853V825H538.167ZM566.456 825V807.369H569.146V810.042C569.832 808.791 570.463 807.967 571.038 807.568C571.625 807.17 572.267 806.971 572.964 806.971C573.971 806.971 574.995 807.292 576.035 807.934L575.006 810.706C574.275 810.274 573.545 810.059 572.814 810.059C572.161 810.059 571.575 810.258 571.055 810.656C570.535 811.044 570.164 811.586 569.942 812.283C569.61 813.346 569.444 814.508 569.444 815.77V825H566.456Z" fill="white"/>
<path d="M776.241 825V807.369H778.931V809.876C780.226 807.939 782.096 806.971 784.542 806.971C785.604 806.971 786.578 807.164 787.464 807.552C788.36 807.928 789.03 808.426 789.473 809.046C789.915 809.666 790.225 810.402 790.402 811.254C790.513 811.807 790.568 812.776 790.568 814.159V825H787.58V814.275C787.58 813.058 787.464 812.15 787.231 811.553C786.999 810.944 786.584 810.463 785.986 810.108C785.4 809.743 784.708 809.561 783.911 809.561C782.638 809.561 781.537 809.965 780.607 810.772C779.689 811.58 779.229 813.113 779.229 815.371V825H776.241ZM795.184 804.099V800.662H798.172V804.099H795.184ZM795.184 825V807.369H798.172V825H795.184ZM802.737 825V807.369H805.427V809.876C806.722 807.939 808.592 806.971 811.038 806.971C812.101 806.971 813.075 807.164 813.96 807.552C814.856 807.928 815.526 808.426 815.969 809.046C816.411 809.666 816.721 810.402 816.898 811.254C817.009 811.807 817.064 812.776 817.064 814.159V825H814.076V814.275C814.076 813.058 813.96 812.15 813.728 811.553C813.495 810.944 813.08 810.463 812.482 810.108C811.896 809.743 811.204 809.561 810.407 809.561C809.134 809.561 808.033 809.965 807.104 810.772C806.185 811.58 805.726 813.113 805.726 815.371V825H802.737ZM821.646 804.132V800.662H824.635V804.132H821.646ZM817.861 831.84L818.426 829.3C819.023 829.455 819.494 829.532 819.837 829.532C820.446 829.532 820.899 829.327 821.198 828.918C821.497 828.52 821.646 827.512 821.646 825.896V807.369H824.635V825.963C824.635 828.132 824.353 829.643 823.788 830.495C823.069 831.602 821.873 832.155 820.202 832.155C819.394 832.155 818.614 832.05 817.861 831.84ZM840.738 822.825C839.632 823.766 838.563 824.43 837.534 824.817C836.516 825.205 835.42 825.398 834.247 825.398C832.31 825.398 830.822 824.928 829.781 823.987C828.741 823.035 828.221 821.824 828.221 820.352C828.221 819.488 828.414 818.702 828.802 817.994C829.2 817.275 829.715 816.699 830.346 816.268C830.988 815.836 831.707 815.509 832.504 815.288C833.09 815.133 833.976 814.984 835.16 814.84C837.573 814.552 839.349 814.209 840.489 813.811C840.5 813.401 840.506 813.141 840.506 813.03C840.506 811.813 840.224 810.955 839.659 810.457C838.896 809.782 837.761 809.444 836.256 809.444C834.85 809.444 833.81 809.693 833.135 810.191C832.471 810.678 831.978 811.547 831.657 812.798L828.735 812.399C829.001 811.149 829.438 810.142 830.047 809.378C830.656 808.603 831.535 808.011 832.687 807.602C833.838 807.181 835.171 806.971 836.688 806.971C838.193 806.971 839.416 807.148 840.356 807.502C841.297 807.856 841.989 808.304 842.432 808.847C842.874 809.378 843.184 810.053 843.361 810.872C843.461 811.381 843.511 812.3 843.511 813.628V817.612C843.511 820.39 843.572 822.15 843.693 822.892C843.826 823.622 844.081 824.325 844.457 825H841.336C841.026 824.38 840.827 823.655 840.738 822.825ZM840.489 816.151C839.405 816.594 837.778 816.97 835.608 817.28C834.38 817.457 833.511 817.657 833.002 817.878C832.493 818.099 832.1 818.426 831.823 818.857C831.547 819.278 831.408 819.748 831.408 820.269C831.408 821.065 831.707 821.729 832.305 822.261C832.913 822.792 833.799 823.058 834.961 823.058C836.112 823.058 837.136 822.809 838.032 822.311C838.929 821.801 839.587 821.11 840.008 820.235C840.329 819.56 840.489 818.564 840.489 817.247V816.151Z" fill="white"/>
<path d="M235.955 825V809.693H233.315V807.369H235.955V805.493C235.955 804.309 236.06 803.429 236.271 802.854C236.558 802.079 237.062 801.453 237.781 800.978C238.512 800.491 239.53 800.247 240.836 800.247C241.677 800.247 242.607 800.347 243.625 800.546L243.177 803.152C242.557 803.042 241.97 802.986 241.417 802.986C240.509 802.986 239.868 803.18 239.491 803.567C239.115 803.955 238.927 804.68 238.927 805.742V807.369H242.363V809.693H238.927V825H235.955ZM256.209 822.825C255.102 823.766 254.034 824.43 253.005 824.817C251.987 825.205 250.891 825.398 249.718 825.398C247.781 825.398 246.292 824.928 245.252 823.987C244.212 823.035 243.691 821.824 243.691 820.352C243.691 819.488 243.885 818.702 244.272 817.994C244.671 817.275 245.186 816.699 245.816 816.268C246.458 815.836 247.178 815.509 247.975 815.288C248.561 815.133 249.447 814.984 250.631 814.84C253.044 814.552 254.82 814.209 255.96 813.811C255.971 813.401 255.977 813.141 255.977 813.03C255.977 811.813 255.694 810.955 255.13 810.457C254.366 809.782 253.232 809.444 251.727 809.444C250.321 809.444 249.281 809.693 248.605 810.191C247.941 810.678 247.449 811.547 247.128 812.798L244.206 812.399C244.472 811.149 244.909 810.142 245.518 809.378C246.126 808.603 247.006 808.011 248.157 807.602C249.308 807.181 250.642 806.971 252.158 806.971C253.663 806.971 254.886 807.148 255.827 807.502C256.768 807.856 257.46 808.304 257.902 808.847C258.345 809.378 258.655 810.053 258.832 810.872C258.932 811.381 258.981 812.3 258.981 813.628V817.612C258.981 820.39 259.042 822.15 259.164 822.892C259.297 823.622 259.551 824.325 259.928 825H256.807C256.497 824.38 256.298 823.655 256.209 822.825ZM255.96 816.151C254.875 816.594 253.248 816.97 251.079 817.28C249.851 817.457 248.982 817.657 248.473 817.878C247.964 818.099 247.571 818.426 247.294 818.857C247.017 819.278 246.879 819.748 246.879 820.269C246.879 821.065 247.178 821.729 247.775 822.261C248.384 822.792 249.27 823.058 250.432 823.058C251.583 823.058 252.606 822.809 253.503 822.311C254.399 821.801 255.058 821.11 255.479 820.235C255.799 819.56 255.96 818.564 255.96 817.247V816.151ZM262.435 819.737L265.39 819.272C265.556 820.457 266.015 821.364 266.768 821.995C267.531 822.626 268.594 822.941 269.955 822.941C271.327 822.941 272.346 822.665 273.01 822.111C273.674 821.547 274.006 820.888 274.006 820.136C274.006 819.461 273.713 818.929 273.126 818.542C272.716 818.276 271.698 817.939 270.071 817.529C267.88 816.976 266.358 816.5 265.506 816.102C264.665 815.692 264.023 815.133 263.58 814.425C263.148 813.705 262.933 812.914 262.933 812.051C262.933 811.265 263.11 810.54 263.464 809.876C263.829 809.201 264.322 808.642 264.941 808.199C265.406 807.856 266.037 807.568 266.834 807.336C267.642 807.092 268.505 806.971 269.424 806.971C270.807 806.971 272.019 807.17 273.06 807.568C274.111 807.967 274.886 808.509 275.384 809.195C275.882 809.87 276.225 810.778 276.413 811.918L273.491 812.316C273.358 811.409 272.971 810.701 272.329 810.191C271.698 809.682 270.802 809.428 269.64 809.428C268.267 809.428 267.288 809.655 266.701 810.108C266.115 810.562 265.821 811.093 265.821 811.702C265.821 812.09 265.943 812.438 266.187 812.748C266.43 813.069 266.812 813.335 267.332 813.545C267.631 813.656 268.511 813.91 269.972 814.309C272.086 814.873 273.558 815.338 274.388 815.703C275.229 816.057 275.887 816.577 276.363 817.264C276.839 817.95 277.077 818.802 277.077 819.82C277.077 820.816 276.784 821.757 276.197 822.643C275.622 823.517 274.786 824.198 273.69 824.685C272.595 825.16 271.355 825.398 269.972 825.398C267.681 825.398 265.932 824.923 264.726 823.971C263.53 823.019 262.767 821.608 262.435 819.737ZM287.154 822.327L287.586 824.967C286.745 825.144 285.992 825.232 285.328 825.232C284.243 825.232 283.402 825.061 282.805 824.718C282.207 824.375 281.786 823.926 281.543 823.373C281.299 822.809 281.178 821.63 281.178 819.837V809.693H278.986V807.369H281.178V803.003L284.149 801.21V807.369H287.154V809.693H284.149V820.003C284.149 820.855 284.199 821.403 284.299 821.646C284.41 821.89 284.581 822.084 284.813 822.228C285.057 822.371 285.4 822.443 285.843 822.443C286.175 822.443 286.612 822.405 287.154 822.327ZM301.598 822.825C300.491 823.766 299.423 824.43 298.394 824.817C297.375 825.205 296.28 825.398 295.106 825.398C293.17 825.398 291.681 824.928 290.641 823.987C289.6 823.035 289.08 821.824 289.08 820.352C289.08 819.488 289.274 818.702 289.661 817.994C290.06 817.275 290.574 816.699 291.205 816.268C291.847 815.836 292.566 815.509 293.363 815.288C293.95 815.133 294.835 814.984 296.02 814.84C298.432 814.552 300.209 814.209 301.349 813.811C301.36 813.401 301.365 813.141 301.365 813.03C301.365 811.813 301.083 810.955 300.519 810.457C299.755 809.782 298.62 809.444 297.115 809.444C295.71 809.444 294.669 809.693 293.994 810.191C293.33 810.678 292.838 811.547 292.517 812.798L289.595 812.399C289.86 811.149 290.298 810.142 290.906 809.378C291.515 808.603 292.395 808.011 293.546 807.602C294.697 807.181 296.031 806.971 297.547 806.971C299.052 806.971 300.275 807.148 301.216 807.502C302.157 807.856 302.848 808.304 303.291 808.847C303.734 809.378 304.044 810.053 304.221 810.872C304.32 811.381 304.37 812.3 304.37 813.628V817.612C304.37 820.39 304.431 822.15 304.553 822.892C304.686 823.622 304.94 824.325 305.316 825H302.195C301.885 824.38 301.686 823.655 301.598 822.825ZM301.349 816.151C300.264 816.594 298.637 816.97 296.468 817.28C295.239 817.457 294.37 817.657 293.861 817.878C293.352 818.099 292.959 818.426 292.683 818.857C292.406 819.278 292.268 819.748 292.268 820.269C292.268 821.065 292.566 821.729 293.164 822.261C293.773 822.792 294.658 823.058 295.82 823.058C296.971 823.058 297.995 822.809 298.892 822.311C299.788 821.801 300.447 821.11 300.867 820.235C301.188 819.56 301.349 818.564 301.349 817.247V816.151ZM309.019 831.757V807.369H311.741V809.66C312.383 808.764 313.108 808.094 313.916 807.651C314.724 807.198 315.703 806.971 316.854 806.971C318.36 806.971 319.688 807.358 320.839 808.133C321.99 808.908 322.859 810.003 323.445 811.42C324.032 812.826 324.325 814.369 324.325 816.052C324.325 817.856 323.999 819.483 323.346 820.933C322.704 822.371 321.763 823.478 320.523 824.253C319.295 825.017 318 825.398 316.639 825.398C315.643 825.398 314.746 825.188 313.949 824.768C313.163 824.347 312.516 823.816 312.007 823.174V831.757H309.019ZM311.725 816.284C311.725 818.553 312.184 820.23 313.103 821.314C314.021 822.399 315.133 822.941 316.439 822.941C317.768 822.941 318.902 822.382 319.843 821.265C320.795 820.136 321.271 818.393 321.271 816.035C321.271 813.788 320.806 812.106 319.876 810.988C318.957 809.87 317.856 809.312 316.572 809.312C315.299 809.312 314.171 809.909 313.186 811.104C312.212 812.289 311.725 814.015 311.725 816.284ZM327.961 804.099V800.662H330.949V804.099H327.961ZM327.961 825V807.369H330.949V825H327.961Z" fill="white"/>
</svg>
