<svg width="1039" height="835" viewBox="0 0 1039 835" fill="none" xmlns="http://www.w3.org/2000/svg">
<path d="M166 22.5H928" stroke="#E1E1E1"/>
<path d="M166 149H928" stroke="#E1E1E1"/>
<path d="M166 275.5H928" stroke="#E1E1E1"/>
<path d="M166 402H928" stroke="#E1E1E1"/>
<path d="M166 528.5H928" stroke="#E1E1E1"/>
<path d="M166 655H928" stroke="#E1E1E1"/>
<path d="M166 781.5H928" stroke="#E1E1E1"/>
<path d="M166 69C166 59.0589 174.059 51 184 51H384C393.941 51 402 59.0589 402 69V782H166V69Z" fill="#09271D"/>
<path d="M429 307C429 297.059 437.059 289 447 289H647C656.941 289 665 297.059 665 307V782H429V307Z" fill="#35544A"/>
<path d="M692 418C692 408.059 700.059 400 710 400H910C919.941 400 928 408.059 928 418V782H692V418Z" fill="#35544A"/>
<path d="M86.917 15.6221L83.9453 15.8545C83.6797 14.6813 83.3034 13.8291 82.8164 13.2979C82.0085 12.4456 81.0124 12.0195 79.8281 12.0195C78.8763 12.0195 78.0407 12.2852 77.3213 12.8164C76.3805 13.5026 75.639 14.5042 75.0967 15.8213C74.5544 17.1383 74.2721 19.0143 74.25 21.4492C74.9694 20.3535 75.8493 19.54 76.8896 19.0088C77.93 18.4775 79.0202 18.2119 80.1602 18.2119C82.1523 18.2119 83.8457 18.9479 85.2402 20.4199C86.6458 21.8809 87.3486 23.7734 87.3486 26.0977C87.3486 27.625 87.0166 29.0472 86.3525 30.3643C85.6995 31.6702 84.7975 32.6719 83.6465 33.3691C82.4954 34.0664 81.1895 34.415 79.7285 34.415C77.2383 34.415 75.2074 33.502 73.6357 31.6758C72.0641 29.8385 71.2783 26.8171 71.2783 22.6113C71.2783 17.9076 72.1471 14.4876 73.8848 12.3516C75.401 10.4922 77.443 9.5625 80.0107 9.5625C81.9255 9.5625 83.4915 10.0993 84.709 11.1729C85.9375 12.2464 86.6735 13.7295 86.917 15.6221ZM74.7148 26.1143C74.7148 27.1436 74.9307 28.1286 75.3623 29.0693C75.805 30.0101 76.4193 30.7295 77.2051 31.2275C77.9909 31.7145 78.8154 31.958 79.6787 31.958C80.9404 31.958 82.0251 31.4489 82.9326 30.4307C83.8402 29.4124 84.2939 28.029 84.2939 26.2803C84.2939 24.598 83.8457 23.2754 82.9492 22.3125C82.0527 21.3385 80.9238 20.8516 79.5625 20.8516C78.2122 20.8516 77.0667 21.3385 76.126 22.3125C75.1852 23.2754 74.7148 24.5426 74.7148 26.1143ZM90.3369 21.9971C90.3369 19.1195 90.6302 16.8063 91.2168 15.0576C91.8145 13.2979 92.6943 11.9421 93.8564 10.9902C95.0296 10.0384 96.5016 9.5625 98.2725 9.5625C99.5785 9.5625 100.724 9.82812 101.709 10.3594C102.694 10.8796 103.507 11.6377 104.149 12.6338C104.791 13.6188 105.295 14.8252 105.66 16.2529C106.025 17.6696 106.208 19.5843 106.208 21.9971C106.208 24.8525 105.915 27.1602 105.328 28.9199C104.742 30.6686 103.862 32.0244 102.688 32.9873C101.526 33.9391 100.054 34.415 98.2725 34.415C95.9261 34.415 94.0833 33.5739 92.7441 31.8916C91.1393 29.8662 90.3369 26.568 90.3369 21.9971ZM93.4082 21.9971C93.4082 25.9925 93.873 28.6543 94.8027 29.9824C95.7435 31.2995 96.9001 31.958 98.2725 31.958C99.6449 31.958 100.796 31.2939 101.726 29.9658C102.666 28.6377 103.137 25.9814 103.137 21.9971C103.137 17.9906 102.666 15.3288 101.726 14.0117C100.796 12.6947 99.6338 12.0361 98.2393 12.0361C96.8669 12.0361 95.7712 12.6172 94.9521 13.7793C93.9229 15.2624 93.4082 18.0016 93.4082 21.9971ZM109.263 21.9971C109.263 19.1195 109.556 16.8063 110.143 15.0576C110.74 13.2979 111.62 11.9421 112.782 10.9902C113.955 10.0384 115.427 9.5625 117.198 9.5625C118.504 9.5625 119.65 9.82812 120.635 10.3594C121.62 10.8796 122.433 11.6377 123.075 12.6338C123.717 13.6188 124.221 14.8252 124.586 16.2529C124.951 17.6696 125.134 19.5843 125.134 21.9971C125.134 24.8525 124.84 27.1602 124.254 28.9199C123.667 30.6686 122.787 32.0244 121.614 32.9873C120.452 33.9391 118.98 34.415 117.198 34.415C114.852 34.415 113.009 33.5739 111.67 31.8916C110.065 29.8662 109.263 26.568 109.263 21.9971ZM112.334 21.9971C112.334 25.9925 112.799 28.6543 113.729 29.9824C114.669 31.2995 115.826 31.958 117.198 31.958C118.571 31.958 119.722 31.2939 120.651 29.9658C121.592 28.6377 122.062 25.9814 122.062 21.9971C122.062 17.9906 121.592 15.3288 120.651 14.0117C119.722 12.6947 118.56 12.0361 117.165 12.0361C115.793 12.0361 114.697 12.6172 113.878 13.7793C112.849 15.2624 112.334 18.0016 112.334 21.9971ZM128.188 21.9971C128.188 19.1195 128.482 16.8063 129.068 15.0576C129.666 13.2979 130.546 11.9421 131.708 10.9902C132.881 10.0384 134.353 9.5625 136.124 9.5625C137.43 9.5625 138.576 9.82812 139.561 10.3594C140.546 10.8796 141.359 11.6377 142.001 12.6338C142.643 13.6188 143.146 14.8252 143.512 16.2529C143.877 17.6696 144.06 19.5843 144.06 21.9971C144.06 24.8525 143.766 27.1602 143.18 28.9199C142.593 30.6686 141.713 32.0244 140.54 32.9873C139.378 33.9391 137.906 34.415 136.124 34.415C133.778 34.415 131.935 33.5739 130.596 31.8916C128.991 29.8662 128.188 26.568 128.188 21.9971ZM131.26 21.9971C131.26 25.9925 131.725 28.6543 132.654 29.9824C133.595 31.2995 134.752 31.958 136.124 31.958C137.496 31.958 138.647 31.2939 139.577 29.9658C140.518 28.6377 140.988 25.9814 140.988 21.9971C140.988 17.9906 140.518 15.3288 139.577 14.0117C138.647 12.6947 137.485 12.0361 136.091 12.0361C134.718 12.0361 133.623 12.6172 132.804 13.7793C131.774 15.2624 131.26 18.0016 131.26 21.9971Z" fill="black"/>
<path d="M71.4111 154.625L74.5488 154.359C74.7812 155.887 75.318 157.038 76.1592 157.812C77.0114 158.576 78.0352 158.958 79.2305 158.958C80.6693 158.958 81.8867 158.416 82.8828 157.331C83.8789 156.246 84.377 154.808 84.377 153.015C84.377 151.31 83.8955 149.965 82.9326 148.98C81.9808 147.995 80.7301 147.503 79.1807 147.503C78.2178 147.503 77.349 147.724 76.5742 148.167C75.7995 148.599 75.1908 149.163 74.748 149.86L71.9424 149.495L74.2998 136.994H86.4023V139.85H76.6904L75.3789 146.391C76.8398 145.372 78.3727 144.863 79.9775 144.863C82.1025 144.863 83.8955 145.599 85.3564 147.071C86.8174 148.543 87.5479 150.436 87.5479 152.749C87.5479 154.951 86.9059 156.855 85.6221 158.46C84.0615 160.43 81.931 161.415 79.2305 161.415C77.0169 161.415 75.2074 160.795 73.8018 159.556C72.4072 158.316 71.6104 156.673 71.4111 154.625ZM90.3369 148.997C90.3369 146.119 90.6302 143.806 91.2168 142.058C91.8145 140.298 92.6943 138.942 93.8564 137.99C95.0296 137.038 96.5016 136.562 98.2725 136.562C99.5785 136.562 100.724 136.828 101.709 137.359C102.694 137.88 103.507 138.638 104.149 139.634C104.791 140.619 105.295 141.825 105.66 143.253C106.025 144.67 106.208 146.584 106.208 148.997C106.208 151.853 105.915 154.16 105.328 155.92C104.742 157.669 103.862 159.024 102.688 159.987C101.526 160.939 100.054 161.415 98.2725 161.415C95.9261 161.415 94.0833 160.574 92.7441 158.892C91.1393 156.866 90.3369 153.568 90.3369 148.997ZM93.4082 148.997C93.4082 152.993 93.873 155.654 94.8027 156.982C95.7435 158.299 96.9001 158.958 98.2725 158.958C99.6449 158.958 100.796 158.294 101.726 156.966C102.666 155.638 103.137 152.981 103.137 148.997C103.137 144.991 102.666 142.329 101.726 141.012C100.796 139.695 99.6338 139.036 98.2393 139.036C96.8669 139.036 95.7712 139.617 94.9521 140.779C93.9229 142.262 93.4082 145.002 93.4082 148.997ZM109.263 148.997C109.263 146.119 109.556 143.806 110.143 142.058C110.74 140.298 111.62 138.942 112.782 137.99C113.955 137.038 115.427 136.562 117.198 136.562C118.504 136.562 119.65 136.828 120.635 137.359C121.62 137.88 122.433 138.638 123.075 139.634C123.717 140.619 124.221 141.825 124.586 143.253C124.951 144.67 125.134 146.584 125.134 148.997C125.134 151.853 124.84 154.16 124.254 155.92C123.667 157.669 122.787 159.024 121.614 159.987C120.452 160.939 118.98 161.415 117.198 161.415C114.852 161.415 113.009 160.574 111.67 158.892C110.065 156.866 109.263 153.568 109.263 148.997ZM112.334 148.997C112.334 152.993 112.799 155.654 113.729 156.982C114.669 158.299 115.826 158.958 117.198 158.958C118.571 158.958 119.722 158.294 120.651 156.966C121.592 155.638 122.062 152.981 122.062 148.997C122.062 144.991 121.592 142.329 120.651 141.012C119.722 139.695 118.56 139.036 117.165 139.036C115.793 139.036 114.697 139.617 113.878 140.779C112.849 142.262 112.334 145.002 112.334 148.997ZM128.188 148.997C128.188 146.119 128.482 143.806 129.068 142.058C129.666 140.298 130.546 138.942 131.708 137.99C132.881 137.038 134.353 136.562 136.124 136.562C137.43 136.562 138.576 136.828 139.561 137.359C140.546 137.88 141.359 138.638 142.001 139.634C142.643 140.619 143.146 141.825 143.512 143.253C143.877 144.67 144.06 146.584 144.06 148.997C144.06 151.853 143.766 154.16 143.18 155.92C142.593 157.669 141.713 159.024 140.54 159.987C139.378 160.939 137.906 161.415 136.124 161.415C133.778 161.415 131.935 160.574 130.596 158.892C128.991 156.866 128.188 153.568 128.188 148.997ZM131.26 148.997C131.26 152.993 131.725 155.654 132.654 156.982C133.595 158.299 134.752 158.958 136.124 158.958C137.496 158.958 138.647 158.294 139.577 156.966C140.518 155.638 140.988 152.981 140.988 148.997C140.988 144.991 140.518 142.329 139.577 141.012C138.647 139.695 137.485 139.036 136.091 139.036C134.718 139.036 133.623 139.617 132.804 140.779C131.774 142.262 131.26 145.002 131.26 148.997Z" fill="black"/>
<path d="M80.9902 289V283.173H70.4316V280.434L81.5381 264.662H83.9785V280.434H87.2656V283.173H83.9785V289H80.9902ZM80.9902 280.434V269.46L73.3701 280.434H80.9902ZM90.3369 276.997C90.3369 274.119 90.6302 271.806 91.2168 270.058C91.8145 268.298 92.6943 266.942 93.8564 265.99C95.0296 265.038 96.5016 264.562 98.2725 264.562C99.5785 264.562 100.724 264.828 101.709 265.359C102.694 265.88 103.507 266.638 104.149 267.634C104.791 268.619 105.295 269.825 105.66 271.253C106.025 272.67 106.208 274.584 106.208 276.997C106.208 279.853 105.915 282.16 105.328 283.92C104.742 285.669 103.862 287.024 102.688 287.987C101.526 288.939 100.054 289.415 98.2725 289.415C95.9261 289.415 94.0833 288.574 92.7441 286.892C91.1393 284.866 90.3369 281.568 90.3369 276.997ZM93.4082 276.997C93.4082 280.993 93.873 283.654 94.8027 284.982C95.7435 286.299 96.9001 286.958 98.2725 286.958C99.6449 286.958 100.796 286.294 101.726 284.966C102.666 283.638 103.137 280.981 103.137 276.997C103.137 272.991 102.666 270.329 101.726 269.012C100.796 267.695 99.6338 267.036 98.2393 267.036C96.8669 267.036 95.7712 267.617 94.9521 268.779C93.9229 270.262 93.4082 273.002 93.4082 276.997ZM109.263 276.997C109.263 274.119 109.556 271.806 110.143 270.058C110.74 268.298 111.62 266.942 112.782 265.99C113.955 265.038 115.427 264.562 117.198 264.562C118.504 264.562 119.65 264.828 120.635 265.359C121.62 265.88 122.433 266.638 123.075 267.634C123.717 268.619 124.221 269.825 124.586 271.253C124.951 272.67 125.134 274.584 125.134 276.997C125.134 279.853 124.84 282.16 124.254 283.92C123.667 285.669 122.787 287.024 121.614 287.987C120.452 288.939 118.98 289.415 117.198 289.415C114.852 289.415 113.009 288.574 111.67 286.892C110.065 284.866 109.263 281.568 109.263 276.997ZM112.334 276.997C112.334 280.993 112.799 283.654 113.729 284.982C114.669 286.299 115.826 286.958 117.198 286.958C118.571 286.958 119.722 286.294 120.651 284.966C121.592 283.638 122.062 280.981 122.062 276.997C122.062 272.991 121.592 270.329 120.651 269.012C119.722 267.695 118.56 267.036 117.165 267.036C115.793 267.036 114.697 267.617 113.878 268.779C112.849 270.262 112.334 273.002 112.334 276.997ZM128.188 276.997C128.188 274.119 128.482 271.806 129.068 270.058C129.666 268.298 130.546 266.942 131.708 265.99C132.881 265.038 134.353 264.562 136.124 264.562C137.43 264.562 138.576 264.828 139.561 265.359C140.546 265.88 141.359 266.638 142.001 267.634C142.643 268.619 143.146 269.825 143.512 271.253C143.877 272.67 144.06 274.584 144.06 276.997C144.06 279.853 143.766 282.16 143.18 283.92C142.593 285.669 141.713 287.024 140.54 287.987C139.378 288.939 137.906 289.415 136.124 289.415C133.778 289.415 131.935 288.574 130.596 286.892C128.991 284.866 128.188 281.568 128.188 276.997ZM131.26 276.997C131.26 280.993 131.725 283.654 132.654 284.982C133.595 286.299 134.752 286.958 136.124 286.958C137.496 286.958 138.647 286.294 139.577 284.966C140.518 283.638 140.988 280.981 140.988 276.997C140.988 272.991 140.518 270.329 139.577 269.012C138.647 267.695 137.485 267.036 136.091 267.036C134.718 267.036 133.623 267.617 132.804 268.779C131.774 270.262 131.26 273.002 131.26 276.997Z" fill="black"/>
<path d="M71.4277 407.575L74.416 407.177C74.7591 408.87 75.3402 410.093 76.1592 410.846C76.9893 411.587 77.9964 411.958 79.1807 411.958C80.5863 411.958 81.7705 411.471 82.7334 410.497C83.7074 409.523 84.1943 408.317 84.1943 406.878C84.1943 405.506 83.7461 404.377 82.8496 403.491C81.9531 402.595 80.8132 402.146 79.4297 402.146C78.8652 402.146 78.1624 402.257 77.3213 402.479L77.6533 399.855C77.8525 399.878 78.013 399.889 78.1348 399.889C79.4076 399.889 80.5531 399.557 81.5713 398.893C82.5895 398.229 83.0986 397.205 83.0986 395.821C83.0986 394.726 82.7279 393.818 81.9863 393.099C81.2448 392.379 80.2874 392.02 79.1143 392.02C77.9521 392.02 76.9837 392.385 76.209 393.115C75.4342 393.846 74.9362 394.941 74.7148 396.402L71.7266 395.871C72.0918 393.868 72.9219 392.318 74.2168 391.223C75.5117 390.116 77.1221 389.562 79.0479 389.562C80.376 389.562 81.599 389.85 82.7168 390.426C83.8346 390.99 84.6868 391.765 85.2734 392.75C85.8711 393.735 86.1699 394.781 86.1699 395.888C86.1699 396.939 85.8877 397.896 85.3232 398.76C84.7588 399.623 83.9232 400.309 82.8164 400.818C84.2552 401.15 85.373 401.842 86.1699 402.894C86.9668 403.934 87.3652 405.24 87.3652 406.812C87.3652 408.937 86.5905 410.741 85.041 412.224C83.4915 413.696 81.5326 414.432 79.1641 414.432C77.028 414.432 75.2516 413.795 73.835 412.522C72.4294 411.25 71.627 409.601 71.4277 407.575ZM90.3369 401.997C90.3369 399.119 90.6302 396.806 91.2168 395.058C91.8145 393.298 92.6943 391.942 93.8564 390.99C95.0296 390.038 96.5016 389.562 98.2725 389.562C99.5785 389.562 100.724 389.828 101.709 390.359C102.694 390.88 103.507 391.638 104.149 392.634C104.791 393.619 105.295 394.825 105.66 396.253C106.025 397.67 106.208 399.584 106.208 401.997C106.208 404.853 105.915 407.16 105.328 408.92C104.742 410.669 103.862 412.024 102.688 412.987C101.526 413.939 100.054 414.415 98.2725 414.415C95.9261 414.415 94.0833 413.574 92.7441 411.892C91.1393 409.866 90.3369 406.568 90.3369 401.997ZM93.4082 401.997C93.4082 405.993 93.873 408.654 94.8027 409.982C95.7435 411.299 96.9001 411.958 98.2725 411.958C99.6449 411.958 100.796 411.294 101.726 409.966C102.666 408.638 103.137 405.981 103.137 401.997C103.137 397.991 102.666 395.329 101.726 394.012C100.796 392.695 99.6338 392.036 98.2393 392.036C96.8669 392.036 95.7712 392.617 94.9521 393.779C93.9229 395.262 93.4082 398.002 93.4082 401.997ZM109.263 401.997C109.263 399.119 109.556 396.806 110.143 395.058C110.74 393.298 111.62 391.942 112.782 390.99C113.955 390.038 115.427 389.562 117.198 389.562C118.504 389.562 119.65 389.828 120.635 390.359C121.62 390.88 122.433 391.638 123.075 392.634C123.717 393.619 124.221 394.825 124.586 396.253C124.951 397.67 125.134 399.584 125.134 401.997C125.134 404.853 124.84 407.16 124.254 408.92C123.667 410.669 122.787 412.024 121.614 412.987C120.452 413.939 118.98 414.415 117.198 414.415C114.852 414.415 113.009 413.574 111.67 411.892C110.065 409.866 109.263 406.568 109.263 401.997ZM112.334 401.997C112.334 405.993 112.799 408.654 113.729 409.982C114.669 411.299 115.826 411.958 117.198 411.958C118.571 411.958 119.722 411.294 120.651 409.966C121.592 408.638 122.062 405.981 122.062 401.997C122.062 397.991 121.592 395.329 120.651 394.012C119.722 392.695 118.56 392.036 117.165 392.036C115.793 392.036 114.697 392.617 113.878 393.779C112.849 395.262 112.334 398.002 112.334 401.997ZM128.188 401.997C128.188 399.119 128.482 396.806 129.068 395.058C129.666 393.298 130.546 391.942 131.708 390.99C132.881 390.038 134.353 389.562 136.124 389.562C137.43 389.562 138.576 389.828 139.561 390.359C140.546 390.88 141.359 391.638 142.001 392.634C142.643 393.619 143.146 394.825 143.512 396.253C143.877 397.67 144.06 399.584 144.06 401.997C144.06 404.853 143.766 407.16 143.18 408.92C142.593 410.669 141.713 412.024 140.54 412.987C139.378 413.939 137.906 414.415 136.124 414.415C133.778 414.415 131.935 413.574 130.596 411.892C128.991 409.866 128.188 406.568 128.188 401.997ZM131.26 401.997C131.26 405.993 131.725 408.654 132.654 409.982C133.595 411.299 134.752 411.958 136.124 411.958C137.496 411.958 138.647 411.294 139.577 409.966C140.518 408.638 140.988 405.981 140.988 401.997C140.988 397.991 140.518 395.329 139.577 394.012C138.647 392.695 137.485 392.036 136.091 392.036C134.718 392.036 133.623 392.617 132.804 393.779C131.774 395.262 131.26 398.002 131.26 401.997Z" fill="black"/>
<path d="M87.1162 538.128V541H71.0293C71.0072 540.281 71.1234 539.589 71.3779 538.925C71.7874 537.829 72.4404 536.75 73.3369 535.688C74.2445 534.625 75.5505 533.396 77.2549 532.002C79.9001 529.833 81.6875 528.117 82.6172 526.855C83.5469 525.583 84.0117 524.382 84.0117 523.253C84.0117 522.069 83.5856 521.073 82.7334 520.265C81.8923 519.446 80.791 519.036 79.4297 519.036C77.9909 519.036 76.8398 519.468 75.9766 520.331C75.1133 521.194 74.6761 522.39 74.665 523.917L71.5938 523.602C71.804 521.311 72.5954 519.567 73.9678 518.372C75.3402 517.166 77.1829 516.562 79.4961 516.562C81.8314 516.562 83.6797 517.21 85.041 518.505C86.4023 519.8 87.083 521.405 87.083 523.319C87.083 524.293 86.8838 525.251 86.4854 526.191C86.0869 527.132 85.4229 528.123 84.4932 529.163C83.5745 530.203 82.0417 531.631 79.8945 533.446C78.1016 534.951 76.9505 535.975 76.4414 536.518C75.9323 537.049 75.5117 537.586 75.1797 538.128H87.1162ZM90.3369 528.997C90.3369 526.119 90.6302 523.806 91.2168 522.058C91.8145 520.298 92.6943 518.942 93.8564 517.99C95.0296 517.038 96.5016 516.562 98.2725 516.562C99.5785 516.562 100.724 516.828 101.709 517.359C102.694 517.88 103.507 518.638 104.149 519.634C104.791 520.619 105.295 521.825 105.66 523.253C106.025 524.67 106.208 526.584 106.208 528.997C106.208 531.853 105.915 534.16 105.328 535.92C104.742 537.669 103.862 539.024 102.688 539.987C101.526 540.939 100.054 541.415 98.2725 541.415C95.9261 541.415 94.0833 540.574 92.7441 538.892C91.1393 536.866 90.3369 533.568 90.3369 528.997ZM93.4082 528.997C93.4082 532.993 93.873 535.654 94.8027 536.982C95.7435 538.299 96.9001 538.958 98.2725 538.958C99.6449 538.958 100.796 538.294 101.726 536.966C102.666 535.638 103.137 532.981 103.137 528.997C103.137 524.991 102.666 522.329 101.726 521.012C100.796 519.695 99.6338 519.036 98.2393 519.036C96.8669 519.036 95.7712 519.617 94.9521 520.779C93.9229 522.262 93.4082 525.002 93.4082 528.997ZM109.263 528.997C109.263 526.119 109.556 523.806 110.143 522.058C110.74 520.298 111.62 518.942 112.782 517.99C113.955 517.038 115.427 516.562 117.198 516.562C118.504 516.562 119.65 516.828 120.635 517.359C121.62 517.88 122.433 518.638 123.075 519.634C123.717 520.619 124.221 521.825 124.586 523.253C124.951 524.67 125.134 526.584 125.134 528.997C125.134 531.853 124.84 534.16 124.254 535.92C123.667 537.669 122.787 539.024 121.614 539.987C120.452 540.939 118.98 541.415 117.198 541.415C114.852 541.415 113.009 540.574 111.67 538.892C110.065 536.866 109.263 533.568 109.263 528.997ZM112.334 528.997C112.334 532.993 112.799 535.654 113.729 536.982C114.669 538.299 115.826 538.958 117.198 538.958C118.571 538.958 119.722 538.294 120.651 536.966C121.592 535.638 122.062 532.981 122.062 528.997C122.062 524.991 121.592 522.329 120.651 521.012C119.722 519.695 118.56 519.036 117.165 519.036C115.793 519.036 114.697 519.617 113.878 520.779C112.849 522.262 112.334 525.002 112.334 528.997ZM128.188 528.997C128.188 526.119 128.482 523.806 129.068 522.058C129.666 520.298 130.546 518.942 131.708 517.99C132.881 517.038 134.353 516.562 136.124 516.562C137.43 516.562 138.576 516.828 139.561 517.359C140.546 517.88 141.359 518.638 142.001 519.634C142.643 520.619 143.146 521.825 143.512 523.253C143.877 524.67 144.06 526.584 144.06 528.997C144.06 531.853 143.766 534.16 143.18 535.92C142.593 537.669 141.713 539.024 140.54 539.987C139.378 540.939 137.906 541.415 136.124 541.415C133.778 541.415 131.935 540.574 130.596 538.892C128.991 536.866 128.188 533.568 128.188 528.997ZM131.26 528.997C131.26 532.993 131.725 535.654 132.654 536.982C133.595 538.299 134.752 538.958 136.124 538.958C137.496 538.958 138.647 538.294 139.577 536.966C140.518 535.638 140.988 532.981 140.988 528.997C140.988 524.991 140.518 522.329 139.577 521.012C138.647 519.695 137.485 519.036 136.091 519.036C134.718 519.036 133.623 519.617 132.804 520.779C131.774 522.262 131.26 525.002 131.26 528.997Z" fill="black"/>
<path d="M82.667 668H79.6787V648.958C78.9593 649.644 78.013 650.33 76.8398 651.017C75.6777 651.703 74.6318 652.217 73.7021 652.561V649.672C75.3734 648.886 76.8343 647.934 78.085 646.816C79.3356 645.699 80.221 644.614 80.7412 643.562H82.667V668ZM90.3369 655.997C90.3369 653.119 90.6302 650.806 91.2168 649.058C91.8145 647.298 92.6943 645.942 93.8564 644.99C95.0296 644.038 96.5016 643.562 98.2725 643.562C99.5785 643.562 100.724 643.828 101.709 644.359C102.694 644.88 103.507 645.638 104.149 646.634C104.791 647.619 105.295 648.825 105.66 650.253C106.025 651.67 106.208 653.584 106.208 655.997C106.208 658.853 105.915 661.16 105.328 662.92C104.742 664.669 103.862 666.024 102.688 666.987C101.526 667.939 100.054 668.415 98.2725 668.415C95.9261 668.415 94.0833 667.574 92.7441 665.892C91.1393 663.866 90.3369 660.568 90.3369 655.997ZM93.4082 655.997C93.4082 659.993 93.873 662.654 94.8027 663.982C95.7435 665.299 96.9001 665.958 98.2725 665.958C99.6449 665.958 100.796 665.294 101.726 663.966C102.666 662.638 103.137 659.981 103.137 655.997C103.137 651.991 102.666 649.329 101.726 648.012C100.796 646.695 99.6338 646.036 98.2393 646.036C96.8669 646.036 95.7712 646.617 94.9521 647.779C93.9229 649.262 93.4082 652.002 93.4082 655.997ZM109.263 655.997C109.263 653.119 109.556 650.806 110.143 649.058C110.74 647.298 111.62 645.942 112.782 644.99C113.955 644.038 115.427 643.562 117.198 643.562C118.504 643.562 119.65 643.828 120.635 644.359C121.62 644.88 122.433 645.638 123.075 646.634C123.717 647.619 124.221 648.825 124.586 650.253C124.951 651.67 125.134 653.584 125.134 655.997C125.134 658.853 124.84 661.16 124.254 662.92C123.667 664.669 122.787 666.024 121.614 666.987C120.452 667.939 118.98 668.415 117.198 668.415C114.852 668.415 113.009 667.574 111.67 665.892C110.065 663.866 109.263 660.568 109.263 655.997ZM112.334 655.997C112.334 659.993 112.799 662.654 113.729 663.982C114.669 665.299 115.826 665.958 117.198 665.958C118.571 665.958 119.722 665.294 120.651 663.966C121.592 662.638 122.062 659.981 122.062 655.997C122.062 651.991 121.592 649.329 120.651 648.012C119.722 646.695 118.56 646.036 117.165 646.036C115.793 646.036 114.697 646.617 113.878 647.779C112.849 649.262 112.334 652.002 112.334 655.997ZM128.188 655.997C128.188 653.119 128.482 650.806 129.068 649.058C129.666 647.298 130.546 645.942 131.708 644.99C132.881 644.038 134.353 643.562 136.124 643.562C137.43 643.562 138.576 643.828 139.561 644.359C140.546 644.88 141.359 645.638 142.001 646.634C142.643 647.619 143.146 648.825 143.512 650.253C143.877 651.67 144.06 653.584 144.06 655.997C144.06 658.853 143.766 661.16 143.18 662.92C142.593 664.669 141.713 666.024 140.54 666.987C139.378 667.939 137.906 668.415 136.124 668.415C133.778 668.415 131.935 667.574 130.596 665.892C128.991 663.866 128.188 660.568 128.188 655.997ZM131.26 655.997C131.26 659.993 131.725 662.654 132.654 663.982C133.595 665.299 134.752 665.958 136.124 665.958C137.496 665.958 138.647 665.294 139.577 663.966C140.518 662.638 140.988 659.981 140.988 655.997C140.988 651.991 140.518 649.329 139.577 648.012C138.647 646.695 137.485 646.036 136.091 646.036C134.718 646.036 133.623 646.617 132.804 647.779C131.774 649.262 131.26 652.002 131.26 655.997Z" fill="black"/>
<path d="M128.411 782.997C128.411 780.119 128.704 777.806 129.291 776.058C129.889 774.298 130.769 772.942 131.931 771.99C133.104 771.038 134.576 770.562 136.347 770.562C137.653 770.562 138.798 770.828 139.783 771.359C140.768 771.88 141.582 772.638 142.224 773.634C142.866 774.619 143.369 775.825 143.734 777.253C144.1 778.67 144.282 780.584 144.282 782.997C144.282 785.853 143.989 788.16 143.402 789.92C142.816 791.669 141.936 793.024 140.763 793.987C139.601 794.939 138.129 795.415 136.347 795.415C134 795.415 132.158 794.574 130.818 792.892C129.214 790.866 128.411 787.568 128.411 782.997ZM131.482 782.997C131.482 786.993 131.947 789.654 132.877 790.982C133.818 792.299 134.974 792.958 136.347 792.958C137.719 792.958 138.87 792.294 139.8 790.966C140.741 789.638 141.211 786.981 141.211 782.997C141.211 778.991 140.741 776.329 139.8 775.012C138.87 773.695 137.708 773.036 136.313 773.036C134.941 773.036 133.845 773.617 133.026 774.779C131.997 776.262 131.482 779.002 131.482 782.997Z" fill="black"/>
<path d="M32 542.922L15.4062 542.922L15.4062 540.391L17.9219 540.391C16.7448 539.745 15.9687 539.151 15.5937 538.609C15.2187 538.057 15.0312 537.453 15.0312 536.797C15.0312 535.849 15.3333 534.885 15.9375 533.906L18.5469 534.875C18.1406 535.562 17.9375 536.25 17.9375 536.937C17.9375 537.552 18.125 538.104 18.5 538.594C18.8646 539.083 19.375 539.432 20.0312 539.641C21.0312 539.953 22.125 540.109 23.3125 540.109L32 540.109L32 542.922ZM38.3594 532.234L15.4062 532.234L15.4062 529.672L17.5625 529.672C16.7187 529.068 16.0885 528.385 15.6719 527.625C15.2448 526.865 15.0312 525.943 15.0312 524.859C15.0312 523.443 15.3958 522.193 16.125 521.109C16.8542 520.026 17.8854 519.208 19.2187 518.656C20.5417 518.104 21.9948 517.828 23.5781 517.828C25.276 517.828 26.8073 518.135 28.1719 518.75C29.526 519.354 30.5677 520.24 31.2969 521.406C32.0156 522.562 32.375 523.781 32.375 525.062C32.375 526 32.1771 526.844 31.7812 527.594C31.3854 528.333 30.8854 528.943 30.2812 529.422L38.3594 529.422L38.3594 532.234ZM23.7969 529.687C25.9323 529.687 27.5104 529.255 28.5312 528.391C29.5521 527.526 30.0625 526.479 30.0625 525.25C30.0625 524 29.5365 522.932 28.4844 522.047C27.4219 521.151 25.7812 520.703 23.5625 520.703C21.4479 520.703 19.8646 521.141 18.8125 522.016C17.7604 522.88 17.2344 523.917 17.2344 525.125C17.2344 526.323 17.7969 527.385 18.9219 528.312C20.0365 529.229 21.6615 529.687 23.7969 529.687ZM27.0469 515.547L26.6094 512.766C27.724 512.609 28.5781 512.177 29.1719 511.469C29.7656 510.75 30.0625 509.75 30.0625 508.469C30.0625 507.177 29.8021 506.219 29.2812 505.594C28.75 504.969 28.1302 504.656 27.4219 504.656C26.7865 504.656 26.2865 504.932 25.9219 505.484C25.6719 505.87 25.3542 506.828 24.9687 508.359C24.4479 510.422 24 511.854 23.625 512.656C23.2396 513.448 22.7135 514.052 22.0469 514.469C21.3698 514.875 20.625 515.078 19.8125 515.078C19.0729 515.078 18.3906 514.911 17.7656 514.578C17.1302 514.234 16.6042 513.771 16.1875 513.187C15.8646 512.75 15.5937 512.156 15.375 511.406C15.1458 510.646 15.0312 509.833 15.0312 508.969C15.0312 507.667 15.2187 506.526 15.5937 505.547C15.9687 504.557 16.4792 503.828 17.125 503.359C17.7604 502.891 18.6146 502.568 19.6875 502.391L20.0625 505.141C19.2083 505.266 18.5417 505.63 18.0625 506.234C17.5833 506.828 17.3437 507.672 17.3437 508.766C17.3437 510.057 17.5573 510.979 17.9844 511.531C18.4115 512.083 18.9115 512.359 19.4844 512.359C19.849 512.359 20.1771 512.245 20.4687 512.016C20.7708 511.786 21.0208 511.427 21.2187 510.937C21.3229 510.656 21.5625 509.828 21.9375 508.453C22.4687 506.464 22.9062 505.078 23.25 504.297C23.5833 503.505 24.0729 502.885 24.7187 502.437C25.3646 501.99 26.1667 501.766 27.125 501.766C28.0625 501.766 28.9479 502.042 29.7812 502.594C30.6042 503.135 31.2448 503.922 31.7031 504.953C32.151 505.984 32.375 507.151 32.375 508.453C32.375 510.609 31.9271 512.255 31.0312 513.391C30.1354 514.516 28.8073 515.234 27.0469 515.547ZM38.7344 484.141C36.776 485.693 34.4844 487.005 31.8594 488.078C29.2344 489.151 26.5156 489.687 23.7031 489.687C21.224 489.687 18.849 489.286 16.5781 488.484C13.9427 487.547 11.3177 486.099 8.70312 484.141L8.70312 482.125C10.8698 483.385 12.4167 484.219 13.3437 484.625C14.7812 485.26 16.2812 485.76 17.8437 486.125C19.7917 486.573 21.75 486.797 23.7187 486.797C28.7292 486.797 33.7344 485.24 38.7344 482.125L38.7344 484.141ZM32 478.859L9.09375 478.859L9.09375 476.047L17.3125 476.047C15.7917 474.734 15.0312 473.078 15.0312 471.078C15.0312 469.849 15.276 468.781 15.7656 467.875C16.2448 466.969 16.9115 466.323 17.7656 465.937C18.6198 465.542 19.8594 465.344 21.4844 465.344L32 465.344L32 468.156L21.4844 468.156C20.0781 468.156 19.0573 468.464 18.4219 469.078C17.776 469.682 17.4531 470.542 17.4531 471.656C17.4531 472.49 17.6719 473.276 18.1094 474.016C18.5365 474.745 19.1198 475.266 19.8594 475.578C20.599 475.891 21.6198 476.047 22.9219 476.047L32 476.047L32 478.859ZM12.3281 461.031L9.09375 461.031L9.09375 458.219L12.3281 458.219L12.3281 461.031ZM32 461.031L15.4062 461.031L15.4062 458.219L32 458.219L32 461.031ZM33.375 454.437L33.7812 451.703C34.625 451.589 35.2396 451.271 35.625 450.75C36.1458 450.052 36.4062 449.099 36.4062 447.891C36.4062 446.589 36.1458 445.583 35.625 444.875C35.1042 444.167 34.375 443.687 33.4375 443.437C32.8646 443.292 31.6615 443.224 29.8281 443.234C31.276 444.464 32 445.995 32 447.828C32 450.109 31.1771 451.875 29.5312 453.125C27.8854 454.375 25.9115 455 23.6094 455C22.026 455 20.5677 454.714 19.2344 454.141C17.8906 453.568 16.8542 452.74 16.125 451.656C15.3958 450.562 15.0312 449.281 15.0312 447.812C15.0312 445.854 15.8229 444.24 17.4062 442.969L15.4062 442.969L15.4062 440.375L29.75 440.375C32.3333 440.375 34.1615 440.641 35.2344 441.172C36.3177 441.693 37.1719 442.526 37.7969 443.672C38.4219 444.807 38.7344 446.208 38.7344 447.875C38.7344 449.854 38.2865 451.453 37.3906 452.672C36.5052 453.891 35.1667 454.479 33.375 454.437ZM23.4062 452.109C25.5833 452.109 27.1719 451.677 28.1719 450.812C29.1719 449.948 29.6719 448.865 29.6719 447.562C29.6719 446.271 29.1771 445.187 28.1875 444.312C27.1875 443.437 25.625 443 23.5 443C21.4687 443 19.9375 443.453 18.9062 444.359C17.875 445.255 17.3594 446.339 17.3594 447.609C17.3594 448.859 17.8698 449.922 18.8906 450.797C19.901 451.672 21.4062 452.109 23.4062 452.109ZM32 436.109L9.09375 436.109L9.09375 433.297L17.3125 433.297C15.7917 431.984 15.0312 430.328 15.0312 428.328C15.0312 427.099 15.276 426.031 15.7656 425.125C16.2448 424.219 16.9115 423.573 17.7656 423.187C18.6198 422.792 19.8594 422.594 21.4844 422.594L32 422.594L32 425.406L21.4844 425.406C20.0781 425.406 19.0573 425.714 18.4219 426.328C17.776 426.932 17.4531 427.792 17.4531 428.906C17.4531 429.74 17.6719 430.526 18.1094 431.266C18.5365 431.995 19.1198 432.516 19.8594 432.828C20.599 433.141 21.6198 433.297 22.9219 433.297L32 433.297L32 436.109ZM26.6562 406.937L27.0156 404.031C28.7135 404.49 30.0312 405.339 30.9687 406.578C31.9062 407.818 32.375 409.401 32.375 411.328C32.375 413.755 31.6302 415.682 30.1406 417.109C28.6406 418.526 26.5417 419.234 23.8437 419.234C21.0521 419.234 18.8854 418.516 17.3437 417.078C15.8021 415.641 15.0312 413.776 15.0312 411.484C15.0312 409.266 15.7865 407.453 17.2969 406.047C18.8073 404.641 20.9323 403.937 23.6719 403.937C23.8385 403.937 24.0885 403.943 24.4219 403.953L24.4219 416.328C26.2448 416.224 27.6406 415.708 28.6094 414.781C29.5781 413.854 30.0625 412.698 30.0625 411.312C30.0625 410.281 29.7917 409.401 29.25 408.672C28.7083 407.943 27.8437 407.365 26.6562 406.937ZM22.1094 416.172L22.1094 406.906C20.7135 407.031 19.6667 407.385 18.9687 407.969C17.8854 408.865 17.3437 410.026 17.3437 411.453C17.3437 412.745 17.776 413.833 18.6406 414.719C19.5052 415.594 20.6615 416.078 22.1094 416.172ZM32 400.516L15.4062 400.516L15.4062 397.984L17.9219 397.984C16.7448 397.339 15.9687 396.745 15.5937 396.203C15.2187 395.651 15.0312 395.047 15.0312 394.391C15.0312 393.443 15.3333 392.479 15.9375 391.5L18.5469 392.469C18.1406 393.156 17.9375 393.844 17.9375 394.531C17.9375 395.146 18.125 395.698 18.5 396.187C18.8646 396.677 19.375 397.026 20.0312 397.234C21.0312 397.547 22.125 397.703 23.3125 397.703L32 397.703L32 400.516ZM12.3281 380.906L9.09374 380.906L9.09374 378.094L12.3281 378.094L12.3281 380.906ZM32 380.906L15.4062 380.906L15.4062 378.094L32 378.094L32 380.906ZM27.0469 374.922L26.6094 372.141C27.724 371.984 28.5781 371.552 29.1719 370.844C29.7656 370.125 30.0625 369.125 30.0625 367.844C30.0625 366.552 29.8021 365.594 29.2812 364.969C28.75 364.344 28.1302 364.031 27.4219 364.031C26.7865 364.031 26.2865 364.307 25.9219 364.859C25.6719 365.245 25.3542 366.203 24.9687 367.734C24.4479 369.797 24 371.229 23.625 372.031C23.2396 372.823 22.7135 373.427 22.0469 373.844C21.3698 374.25 20.625 374.453 19.8125 374.453C19.0729 374.453 18.3906 374.286 17.7656 373.953C17.1302 373.609 16.6042 373.146 16.1875 372.562C15.8646 372.125 15.5937 371.531 15.375 370.781C15.1458 370.021 15.0312 369.208 15.0312 368.344C15.0312 367.042 15.2187 365.901 15.5937 364.922C15.9687 363.932 16.4792 363.203 17.125 362.734C17.7604 362.266 18.6146 361.943 19.6875 361.766L20.0625 364.516C19.2083 364.641 18.5417 365.005 18.0625 365.609C17.5833 366.203 17.3437 367.047 17.3437 368.141C17.3437 369.432 17.5573 370.354 17.9844 370.906C18.4115 371.458 18.9115 371.734 19.4844 371.734C19.849 371.734 20.1771 371.62 20.4687 371.391C20.7708 371.161 21.0208 370.802 21.2187 370.312C21.3229 370.031 21.5625 369.203 21.9375 367.828C22.4687 365.839 22.9062 364.453 23.25 363.672C23.5833 362.88 24.0729 362.26 24.7187 361.812C25.3646 361.365 26.1667 361.141 27.125 361.141C28.0625 361.141 28.9479 361.417 29.7812 361.969C30.6042 362.51 31.2448 363.297 31.7031 364.328C32.151 365.359 32.375 366.526 32.375 367.828C32.375 369.984 31.9271 371.63 31.0312 372.766C30.1354 373.891 28.8073 374.609 27.0469 374.922ZM32 346.297L32 348.906L9.09374 348.906L9.09374 346.094L17.2656 346.094C15.776 344.906 15.0312 343.391 15.0312 341.547C15.0312 340.526 15.2396 339.562 15.6562 338.656C16.0625 337.74 16.6406 336.99 17.3906 336.406C18.1302 335.812 19.026 335.349 20.0781 335.016C21.1302 334.682 22.2552 334.516 23.4531 334.516C26.2969 334.516 28.4948 335.219 30.0469 336.625C31.5989 338.031 32.375 339.719 32.375 341.687C32.375 343.646 31.5573 345.182 29.9219 346.297L32 346.297ZM23.5781 346.328C25.5677 346.328 27.0052 346.057 27.8906 345.516C29.3385 344.63 30.0625 343.432 30.0625 341.922C30.0625 340.693 29.5312 339.63 28.4687 338.734C27.3958 337.839 25.8021 337.391 23.6875 337.391C21.5208 337.391 19.9219 337.823 18.8906 338.687C17.8594 339.542 17.3437 340.578 17.3437 341.797C17.3437 343.026 17.8802 344.089 18.9531 344.984C20.0156 345.88 21.5573 346.328 23.5781 346.328ZM26.6562 319.719L27.0156 316.812C28.7135 317.271 30.0312 318.12 30.9687 319.359C31.9062 320.599 32.375 322.182 32.375 324.109C32.375 326.536 31.6302 328.464 30.1406 329.891C28.6406 331.307 26.5417 332.016 23.8437 332.016C21.0521 332.016 18.8854 331.297 17.3437 329.859C15.8021 328.422 15.0312 326.557 15.0312 324.266C15.0312 322.047 15.7864 320.234 17.2969 318.828C18.8073 317.422 20.9323 316.719 23.6719 316.719C23.8385 316.719 24.0885 316.724 24.4219 316.734L24.4219 329.109C26.2448 329.005 27.6406 328.49 28.6094 327.562C29.5781 326.635 30.0625 325.479 30.0625 324.094C30.0625 323.062 29.7917 322.182 29.25 321.453C28.7083 320.724 27.8437 320.146 26.6562 319.719ZM22.1094 328.953L22.1094 319.687C20.7135 319.812 19.6667 320.167 18.9687 320.75C17.8854 321.646 17.3437 322.807 17.3437 324.234C17.3437 325.526 17.776 326.615 18.6406 327.5C19.5052 328.375 20.6614 328.859 22.1094 328.953ZM29.4844 307.125L31.9687 306.719C32.1354 307.51 32.2187 308.219 32.2187 308.844C32.2187 309.865 32.0573 310.656 31.7344 311.219C31.4114 311.781 30.9896 312.177 30.4687 312.406C29.9375 312.635 28.8281 312.75 27.1406 312.75L17.5937 312.75L17.5937 314.812L15.4062 314.812L15.4062 312.75L11.2969 312.75L9.60936 309.953L15.4062 309.953L15.4062 307.125L17.5937 307.125L17.5937 309.953L27.2969 309.953C28.0989 309.953 28.6146 309.906 28.8437 309.812C29.0729 309.708 29.2552 309.547 29.3906 309.328C29.526 309.099 29.5937 308.776 29.5937 308.359C29.5937 308.047 29.5573 307.635 29.4844 307.125ZM29.4844 298.219L31.9687 297.812C32.1354 298.604 32.2187 299.312 32.2187 299.937C32.2187 300.958 32.0573 301.75 31.7344 302.312C31.4114 302.875 30.9896 303.271 30.4687 303.5C29.9375 303.729 28.8281 303.844 27.1406 303.844L17.5937 303.844L17.5937 305.906L15.4062 305.906L15.4062 303.844L11.2969 303.844L9.60936 301.047L15.4062 301.047L15.4062 298.219L17.5937 298.219L17.5937 301.047L27.2969 301.047C28.0989 301.047 28.6146 301 28.8437 300.906C29.0729 300.802 29.2552 300.641 29.3906 300.422C29.526 300.193 29.5937 299.87 29.5937 299.453C29.5937 299.141 29.5573 298.729 29.4844 298.219ZM26.6562 284.094L27.0156 281.187C28.7135 281.646 30.0312 282.495 30.9687 283.734C31.9062 284.974 32.375 286.557 32.375 288.484C32.375 290.911 31.6302 292.839 30.1406 294.266C28.6406 295.682 26.5417 296.391 23.8437 296.391C21.0521 296.391 18.8854 295.672 17.3437 294.234C15.8021 292.797 15.0312 290.932 15.0312 288.641C15.0312 286.422 15.7864 284.609 17.2969 283.203C18.8073 281.797 20.9323 281.094 23.6719 281.094C23.8385 281.094 24.0885 281.099 24.4219 281.109L24.4219 293.484C26.2448 293.38 27.6406 292.865 28.6094 291.937C29.5781 291.01 30.0625 289.854 30.0625 288.469C30.0625 287.437 29.7917 286.557 29.25 285.828C28.7083 285.099 27.8437 284.521 26.6562 284.094ZM22.1094 293.328L22.1094 284.062C20.7135 284.187 19.6667 284.542 18.9687 285.125C17.8854 286.021 17.3437 287.182 17.3437 288.609C17.3437 289.901 17.776 290.99 18.6406 291.875C19.5052 292.75 20.6614 293.234 22.1094 293.328ZM32 277.672L15.4062 277.672L15.4062 275.141L17.9219 275.141C16.7448 274.495 15.9687 273.901 15.5937 273.359C15.2187 272.807 15.0312 272.203 15.0312 271.547C15.0312 270.599 15.3333 269.635 15.9375 268.656L18.5469 269.625C18.1406 270.312 17.9375 271 17.9375 271.687C17.9375 272.302 18.125 272.854 18.5 273.344C18.8646 273.833 19.375 274.182 20.0312 274.391C21.0312 274.703 22.125 274.859 23.3125 274.859L32 274.859L32 277.672ZM38.7344 265.141L38.7344 267.156C33.7344 264.042 28.7292 262.484 23.7187 262.484C21.7604 262.484 19.8177 262.708 17.8906 263.156C16.3281 263.51 14.8281 264.005 13.3906 264.641C12.4531 265.047 10.8906 265.885 8.70311 267.156L8.70311 265.141C11.3177 263.182 13.9427 261.734 16.5781 260.797C18.8489 259.995 21.2239 259.594 23.7031 259.594C26.5156 259.594 29.2344 260.135 31.8594 261.219C34.4844 262.292 36.776 263.599 38.7344 265.141Z" fill="black"/>
<path d="M514.241 825V807.369H516.931V809.876C518.226 807.939 520.096 806.971 522.542 806.971C523.604 806.971 524.578 807.164 525.464 807.552C526.36 807.928 527.03 808.426 527.473 809.046C527.915 809.666 528.225 810.402 528.402 811.254C528.513 811.807 528.568 812.776 528.568 814.159V825H525.58V814.275C525.58 813.058 525.464 812.15 525.231 811.553C524.999 810.944 524.584 810.463 523.986 810.108C523.4 809.743 522.708 809.561 521.911 809.561C520.638 809.561 519.537 809.965 518.607 810.772C517.689 811.58 517.229 813.113 517.229 815.371V825H514.241ZM533.184 804.099V800.662H536.172V804.099H533.184ZM533.184 825V807.369H536.172V825H533.184ZM540.737 825V807.369H543.427V809.876C544.722 807.939 546.592 806.971 549.038 806.971C550.101 806.971 551.075 807.164 551.96 807.552C552.856 807.928 553.526 808.426 553.969 809.046C554.411 809.666 554.721 810.402 554.898 811.254C555.009 811.807 555.064 812.776 555.064 814.159V825H552.076V814.275C552.076 813.058 551.96 812.15 551.728 811.553C551.495 810.944 551.08 810.463 550.482 810.108C549.896 809.743 549.204 809.561 548.407 809.561C547.134 809.561 546.033 809.965 545.104 810.772C544.185 811.58 543.726 813.113 543.726 815.371V825H540.737ZM559.646 804.132V800.662H562.635V804.132H559.646ZM555.861 831.84L556.426 829.3C557.023 829.455 557.494 829.532 557.837 829.532C558.446 829.532 558.899 829.327 559.198 828.918C559.497 828.52 559.646 827.512 559.646 825.896V807.369H562.635V825.963C562.635 828.132 562.353 829.643 561.788 830.495C561.069 831.602 559.873 832.155 558.202 832.155C557.394 832.155 556.614 832.05 555.861 831.84ZM578.738 822.825C577.632 823.766 576.563 824.43 575.534 824.817C574.516 825.205 573.42 825.398 572.247 825.398C570.31 825.398 568.822 824.928 567.781 823.987C566.741 823.035 566.221 821.824 566.221 820.352C566.221 819.488 566.414 818.702 566.802 817.994C567.2 817.275 567.715 816.699 568.346 816.268C568.988 815.836 569.707 815.509 570.504 815.288C571.09 815.133 571.976 814.984 573.16 814.84C575.573 814.552 577.349 814.209 578.489 813.811C578.5 813.401 578.506 813.141 578.506 813.03C578.506 811.813 578.224 810.955 577.659 810.457C576.896 809.782 575.761 809.444 574.256 809.444C572.85 809.444 571.81 809.693 571.135 810.191C570.471 810.678 569.978 811.547 569.657 812.798L566.735 812.399C567.001 811.149 567.438 810.142 568.047 809.378C568.656 808.603 569.535 808.011 570.687 807.602C571.838 807.181 573.171 806.971 574.688 806.971C576.193 806.971 577.416 807.148 578.356 807.502C579.297 807.856 579.989 808.304 580.432 808.847C580.874 809.378 581.184 810.053 581.361 810.872C581.461 811.381 581.511 812.3 581.511 813.628V817.612C581.511 820.39 581.572 822.15 581.693 822.892C581.826 823.622 582.081 824.325 582.457 825H579.336C579.026 824.38 578.827 823.655 578.738 822.825ZM578.489 816.151C577.405 816.594 575.778 816.97 573.608 817.28C572.38 817.457 571.511 817.657 571.002 817.878C570.493 818.099 570.1 818.426 569.823 818.857C569.547 819.278 569.408 819.748 569.408 820.269C569.408 821.065 569.707 821.729 570.305 822.261C570.913 822.792 571.799 823.058 572.961 823.058C574.112 823.058 575.136 822.809 576.032 822.311C576.929 821.801 577.587 821.11 578.008 820.235C578.329 819.56 578.489 818.564 578.489 817.247V816.151Z" fill="black"/>
<path d="M801.68 825V822.775C800.562 824.524 798.918 825.398 796.749 825.398C795.343 825.398 794.049 825.011 792.864 824.236C791.691 823.462 790.778 822.382 790.125 820.999C789.483 819.604 789.162 818.005 789.162 816.201C789.162 814.441 789.455 812.848 790.042 811.42C790.629 809.981 791.508 808.88 792.682 808.116C793.855 807.353 795.166 806.971 796.616 806.971C797.679 806.971 798.625 807.198 799.455 807.651C800.285 808.094 800.96 808.675 801.48 809.395V800.662H804.452V825H801.68ZM792.233 816.201C792.233 818.459 792.709 820.147 793.661 821.265C794.613 822.382 795.736 822.941 797.031 822.941C798.337 822.941 799.444 822.41 800.352 821.348C801.27 820.274 801.729 818.642 801.729 816.45C801.729 814.037 801.265 812.267 800.335 811.138C799.405 810.009 798.26 809.444 796.898 809.444C795.57 809.444 794.458 809.987 793.562 811.071C792.676 812.156 792.233 813.866 792.233 816.201ZM809.134 825V807.369H811.823V810.042C812.509 808.791 813.14 807.967 813.716 807.568C814.302 807.17 814.944 806.971 815.642 806.971C816.649 806.971 817.673 807.292 818.713 807.934L817.684 810.706C816.953 810.274 816.223 810.059 815.492 810.059C814.839 810.059 814.253 810.258 813.732 810.656C813.212 811.044 812.841 811.586 812.62 812.283C812.288 813.346 812.122 814.508 812.122 815.77V825H809.134ZM821.203 825V809.693H818.563V807.369H821.203V805.493C821.203 804.309 821.308 803.429 821.519 802.854C821.806 802.079 822.31 801.453 823.029 800.978C823.76 800.491 824.778 800.247 826.084 800.247C826.925 800.247 827.855 800.347 828.873 800.546L828.425 803.152C827.805 803.042 827.218 802.986 826.665 802.986C825.757 802.986 825.116 803.18 824.739 803.567C824.363 803.955 824.175 804.68 824.175 805.742V807.369H827.611V809.693H824.175V825H821.203Z" fill="black"/>
<path d="M267.68 825V822.775C266.562 824.524 264.918 825.398 262.749 825.398C261.343 825.398 260.049 825.011 258.864 824.236C257.691 823.462 256.778 822.382 256.125 820.999C255.483 819.604 255.162 818.005 255.162 816.201C255.162 814.441 255.455 812.848 256.042 811.42C256.629 809.981 257.508 808.88 258.682 808.116C259.855 807.353 261.166 806.971 262.616 806.971C263.679 806.971 264.625 807.198 265.455 807.651C266.285 808.094 266.96 808.675 267.48 809.395V800.662H270.452V825H267.68ZM258.233 816.201C258.233 818.459 258.709 820.147 259.661 821.265C260.613 822.382 261.736 822.941 263.031 822.941C264.337 822.941 265.444 822.41 266.352 821.348C267.27 820.274 267.729 818.642 267.729 816.45C267.729 814.037 267.265 812.267 266.335 811.138C265.405 810.009 264.26 809.444 262.898 809.444C261.57 809.444 260.458 809.987 259.562 811.071C258.676 812.156 258.233 813.866 258.233 816.201ZM275.167 825V807.369H277.84V809.843C278.393 808.979 279.129 808.288 280.048 807.768C280.966 807.236 282.012 806.971 283.186 806.971C284.492 806.971 285.56 807.242 286.39 807.784C287.231 808.326 287.823 809.085 288.166 810.059C289.561 808 291.376 806.971 293.611 806.971C295.36 806.971 296.705 807.458 297.646 808.432C298.586 809.395 299.057 810.883 299.057 812.897V825H296.085V813.894C296.085 812.698 295.985 811.84 295.786 811.32C295.598 810.789 295.249 810.363 294.74 810.042C294.231 809.721 293.633 809.561 292.947 809.561C291.708 809.561 290.678 809.976 289.859 810.806C289.04 811.625 288.631 812.942 288.631 814.757V825H285.643V813.545C285.643 812.217 285.399 811.221 284.912 810.557C284.425 809.893 283.628 809.561 282.521 809.561C281.68 809.561 280.9 809.782 280.181 810.225C279.472 810.667 278.958 811.315 278.637 812.167C278.316 813.019 278.155 814.248 278.155 815.853V825H275.167ZM303.456 825V807.369H306.146V810.042C306.832 808.791 307.463 807.967 308.038 807.568C308.625 807.17 309.267 806.971 309.964 806.971C310.971 806.971 311.995 807.292 313.035 807.934L312.006 810.706C311.275 810.274 310.545 810.059 309.814 810.059C309.161 810.059 308.575 810.258 308.055 810.656C307.535 811.044 307.164 811.586 306.942 812.283C306.61 813.346 306.444 814.508 306.444 815.77V825H303.456Z" fill="black"/>
</svg>
