<svg width="1200" height="365" viewBox="0 0 1200 365" fill="none" xmlns="http://www.w3.org/2000/svg">
<path d="M48.2734 255.586L87.9406 189.906L124.556 255.586L87.9406 321.265L48.2734 255.586Z" fill="#BAC5C4"/>
<path d="M87.9406 321.265L48.2734 255.586H124.556L87.9406 321.265Z" fill="white"/>
<path d="M235.454 255.59L142.073 99.2734L110.508 151.817L168.378 255.59L131.551 321.27H195.997L235.454 255.59Z" fill="#BAC5C4"/>
<path d="M235.451 255.588H168.375L131.548 321.267H195.994L235.451 255.588Z" fill="white"/>
<path d="M345.841 255.59L252.46 99.2734L220.895 151.817L278.764 255.59L241.938 321.27H306.384L345.841 255.59Z" fill="#BAC5C4"/>
<path d="M345.841 255.59H278.764L241.938 321.27H306.384L345.841 255.59Z" fill="white"/>
<path d="M395.945 210.952V101.931H426.523V118.03H426.76C430.632 112.19 435.531 107.613 441.457 104.299C447.383 100.905 454.296 99.2087 462.198 99.2087C470.099 99.2087 476.815 100.866 482.346 104.18C487.956 107.495 491.827 112.387 493.961 118.858H494.079C498.109 112.624 503.482 107.81 510.198 104.417C516.914 100.945 524.46 99.2087 532.835 99.2087C543.423 99.2087 551.917 102.247 558.317 108.323C564.717 114.4 567.917 124.54 567.917 138.745V210.952H536.391V143.125C536.391 135.628 534.889 130.419 531.887 127.5C528.884 124.58 524.618 123.12 519.087 123.12C514.188 123.12 509.921 124.619 506.287 127.618C502.731 130.617 499.847 134.444 497.635 139.1V210.952H466.109V143.125C466.109 135.628 464.568 130.419 461.486 127.5C458.484 124.58 454.178 123.12 448.568 123.12C443.748 123.12 439.56 124.659 436.005 127.736C432.449 130.735 429.526 134.562 427.234 139.218V210.952H395.945Z" fill="white"/>
<path d="M583.68 158.158V154.252C583.68 137.68 588.934 124.304 599.443 114.124C609.951 103.944 623.937 98.8536 641.399 98.8536C658.939 98.8536 672.964 103.944 683.473 114.124C693.982 124.304 699.236 137.68 699.236 154.252V158.158C699.236 174.809 693.982 188.224 683.473 198.404C672.964 208.584 658.939 213.674 641.399 213.674C623.858 213.674 609.833 208.584 599.324 198.404C588.895 188.224 583.68 174.809 583.68 158.158ZM615.324 153.423V158.868C615.324 168.338 617.537 176.071 621.961 182.069C626.386 187.988 632.865 190.947 641.399 190.947C649.932 190.947 656.411 187.988 660.836 182.069C665.26 176.071 667.473 168.338 667.473 158.868V153.423C667.473 144.032 665.26 136.417 660.836 130.577C656.411 124.738 649.932 121.818 641.399 121.818C632.865 121.818 626.386 124.738 621.961 130.577C617.537 136.417 615.324 144.032 615.324 153.423Z" fill="white"/>
<path d="M710.258 158.276V154.488C710.258 138.548 714.406 125.408 722.703 115.071C731.078 104.733 742.14 99.5639 755.888 99.5639C764.263 99.5639 771.335 100.905 777.103 103.588C782.871 106.272 787.375 109.862 790.614 114.36V38.1289H821.311V210.952H791.325L791.207 195.208H790.97C787.809 200.18 783.226 204.441 777.222 207.992C771.296 211.544 764.184 213.319 755.888 213.319C741.745 213.319 730.604 208.111 722.466 197.694C714.327 187.277 710.258 174.138 710.258 158.276ZM741.903 157.921C741.903 167.628 743.918 175.598 747.947 181.832C751.977 188.066 758.258 191.184 766.792 191.184C772.481 191.184 777.34 189.566 781.37 186.33C785.399 183.016 788.323 179.268 790.14 175.085V136.733C788.402 132.629 785.518 129.117 781.488 126.198C777.459 123.278 772.56 121.818 766.792 121.818C758.258 121.818 751.977 124.935 747.947 131.169C743.918 137.324 741.903 145.216 741.903 154.843V157.921Z" fill="white"/>
<path d="M838.259 158.04V154.252C838.259 137.443 843.316 124.027 853.429 114.005C863.622 103.904 877.212 98.8536 894.2 98.8536C910.951 98.8536 923.83 103.628 932.837 113.177C941.845 122.725 946.348 135.943 946.348 152.831V161.827H854.852V144.782H916.007V143.953C916.007 137.798 914.269 132.471 910.793 127.973C907.316 123.475 901.706 121.226 893.963 121.226C885.904 121.226 879.78 124.106 875.592 129.867C871.484 135.628 869.429 142.809 869.429 151.411V158.276C869.429 168.535 871.642 176.584 876.066 182.424C880.57 188.264 887.01 191.184 895.385 191.184C901.39 191.184 906.407 190 910.437 187.632C914.546 185.186 917.706 181.951 919.919 177.926L945.519 186.567C942.121 194.695 936.393 201.245 928.333 206.217C920.353 211.188 909.489 213.674 895.741 213.674C877.41 213.674 863.227 208.703 853.192 198.759C843.237 188.737 838.259 175.164 838.259 158.04Z" fill="white"/>
<path d="M962.704 210.952V101.931H994.112V117.083H994.23C997.391 112.032 1001.46 107.889 1006.44 104.654C1011.42 101.418 1017.22 99.8006 1023.86 99.8006C1025.91 99.8006 1027.97 99.9584 1030.02 100.274C1032.08 100.511 1033.46 100.787 1034.17 101.103V124.895C1032.75 124.422 1031.01 124.067 1028.96 123.83C1026.98 123.514 1024.81 123.357 1022.44 123.357C1017.06 123.357 1011.85 125.093 1006.79 128.565C1001.74 131.958 997.707 136.496 994.704 142.178V210.952H962.704Z" fill="white"/>
<path d="M1045.67 210.952V101.931H1076.48V117.201H1076.72C1079.8 111.598 1084.38 107.219 1090.47 104.062C1096.55 100.826 1103.86 99.2087 1112.39 99.2087C1123.38 99.2087 1132.19 102.286 1138.82 108.442C1145.54 114.597 1148.9 124.738 1148.9 138.863V210.952H1117.61V144.072C1117.61 136.496 1115.99 131.13 1112.75 127.973C1109.51 124.738 1105.01 123.12 1099.24 123.12C1094.26 123.12 1089.84 124.58 1085.96 127.5C1082.09 130.419 1079.09 134.247 1076.96 138.982V210.952H1045.67Z" fill="white"/>
<path d="M395.934 320.707V249.056H423.624C431.212 249.056 437.174 251.09 441.51 255.158C445.846 259.193 448.014 264.689 448.014 271.644C448.014 278.697 445.78 284.34 441.313 288.572C436.846 292.804 430.9 294.92 423.477 294.92H412.243V320.707H395.934ZM412.243 283.7H421.259C425.07 283.7 427.747 282.651 429.291 280.551C430.867 278.451 431.656 275.679 431.656 272.234C431.656 268.79 430.867 266.034 429.291 263.967C427.747 261.9 425.07 260.867 421.259 260.867H412.243V283.7ZM433.233 320.707L418.303 288.621L433.922 285.964L451.217 320.707H433.233Z" fill="#BAC5C4"/>
<path d="M457.129 320.707V249.056H504.332V261.752H472.995V278.238H499.947V289.999H472.995V308.306H504.973V320.707H457.129Z" fill="#BAC5C4"/>
<path d="M510.639 301.023V298.316H526.258V300.137C526.258 303.614 527.26 306.206 529.264 307.912C531.3 309.618 534.125 310.471 537.738 310.471C541.253 310.471 543.963 309.684 545.868 308.109C547.774 306.534 548.726 304.435 548.726 301.81C548.726 299.317 547.741 297.332 545.77 295.855C543.799 294.346 539.791 292.722 533.747 290.984C526.291 288.786 520.74 285.931 517.093 282.421C513.48 278.911 511.657 274.285 511.624 268.544C511.624 262.212 513.94 257.192 518.572 253.485C523.236 249.745 529.461 247.875 537.246 247.875C544.998 247.875 551.239 249.679 555.969 253.288C560.699 256.897 563.064 261.867 563.064 268.199V270.463H547.691V268.986C547.691 266.067 546.821 263.77 545.08 262.097C543.339 260.391 540.793 259.538 537.443 259.538C533.994 259.538 531.464 260.243 529.855 261.654C528.278 263.065 527.49 264.935 527.49 267.264C527.49 269.495 528.492 271.267 530.495 272.579C532.499 273.891 536.589 275.433 542.764 277.205C550.024 279.304 555.46 282.142 559.073 285.718C562.719 289.261 564.542 294.149 564.542 300.383C564.542 307.141 562.095 312.423 557.201 316.229C552.307 320.034 545.868 321.937 537.886 321.937C529.904 321.937 523.367 320.166 518.276 316.622C513.185 313.046 510.639 307.846 510.639 301.023Z" fill="#BAC5C4"/>
<path d="M567.942 261.752V249.056H624.457V261.752H604.453V320.707H587.996V261.752H567.942Z" fill="#BAC5C4"/>
</svg>
